<?xml version="1.0" encoding="UTF-8"?>
<svg width="23px" height="23px" viewBox="0 0 23 23" version="1.1" xmlns="http://www.w3.org/2000/svg" xmlns:xlink="http://www.w3.org/1999/xlink">
    <!-- Generator: Sketch 64 (93537) - https://sketch.com -->
    <title>编组</title>
    <desc>Created with Sketch.</desc>
    <g id="页面-1" stroke="none" stroke-width="1" fill="none" fill-rule="evenodd">
        <g id="首页1" transform="translate(-408.000000, -345.000000)" fill="#C69F56" fill-rule="nonzero">
            <g id="编组-7备份" transform="translate(377.000000, 313.000000)">
                <g id="编组-12" transform="translate(15.000000, 17.000000)">
                    <g id="编组" transform="translate(16.000000, 15.000000)">
                        <path d="M22.2813033,5.23550191 C22.678565,5.23550191 23,4.91400398 23,4.5167751 L23,0.718726813 C23,0.321448465 22.678565,0 22.2813033,0 L18.4825487,0 C18.0859795,0 17.763852,0.321448465 17.763852,0.718726813 L17.763852,1.89930856 L15.4307341,1.89930856 C15.3580789,1.88814557 15.2841449,1.88814557 15.2114896,1.89930856 L5.23622215,1.89930856 L5.23622215,0.718751546 C5.23622215,0.321473197 4.91404522,0 4.51747601,0 L0.718770867,0 C0.321484448,0 0,0.321473197 0,0.718751546 L0,4.51675036 C0,4.91402871 0.321484448,5.23547718 0.718770867,5.23547718 L1.8993773,5.23547718 L1.8993773,17.7645228 L0.718770867,17.7645228 C0.321484448,17.7645228 0,18.0859713 0,18.4832496 L0,22.2812485 C0,22.6785268 0.321484448,23 0.718770867,23 L4.51747601,23 C4.91404522,23 5.23622215,22.6785268 5.23622215,22.2812485 L5.23622215,21.1006667 L17.7638273,21.1006667 L17.7638273,22.2812732 C17.7638273,22.6785515 18.0859795,23 18.482524,23 L22.2812786,23 C22.6785403,23 23,22.6785515 23,22.2812732 L23,18.4832744 C23,18.085996 22.6785403,17.7645476 22.2812786,17.7645476 L21.1006474,17.7645476 L21.1006474,7.68258616 C21.101884,7.65824937 21.101884,7.63386311 21.1006474,7.60950159 L21.1006474,5.23550191 L22.2813033,5.23550191 Z M19.2013196,1.43747836 L21.5625077,1.43747836 L21.5625077,3.79799882 L19.2013196,3.79799882 L19.2013196,1.43747836 Z M3.33686958,10.2878596 C3.37997032,10.260113 3.41997194,10.2278616 3.45622368,10.1916501 L10.311022,3.33678692 L13.5775305,3.33678692 L3.33686958,13.5775311 L3.33686958,10.2878843 L3.33686958,10.2878596 Z M1.437517,1.43747836 L3.79872988,1.43747836 L3.79872988,2.59070595 C3.79838364,2.59978278 3.7980374,2.60888435 3.7980374,2.61806011 C3.7980374,2.62723587 3.79840837,2.63633744 3.79872988,2.64541427 L3.79872988,3.79799882 L1.437517,3.79799882 L1.437517,1.43747836 Z M4.51750074,5.23545244 C4.91406995,5.23545244 5.23624688,4.91397925 5.23624688,4.51672563 L5.23624688,3.33681166 L8.27829254,3.33681166 L3.33689431,8.27824399 L3.33689431,5.23550191 L4.51750074,5.23550191 L4.51750074,5.23545244 Z M3.33686958,15.6101726 L15.6102599,3.33681166 L17.7638768,3.33681166 L17.7638768,4.21746223 L4.2168402,17.7644981 L3.33686958,17.7644981 L3.33686958,15.6101726 L3.33686958,15.6101726 Z M1.437517,21.5624969 L1.437517,19.2020012 L3.79872988,19.2020012 L3.79872988,20.3545363 C3.79838364,20.3636131 3.7980374,20.3727394 3.7980374,20.3818904 C3.7980374,20.3910415 3.79840837,20.4001678 3.79872988,20.4092446 L3.79872988,21.5624722 L1.437517,21.5624722 L1.437517,21.5624969 Z M19.6631799,12.6085112 L12.7807318,19.4909017 C12.7299219,19.541636 12.6870056,19.5997021 12.6534142,19.6631636 L9.38215721,19.6631636 L19.6631799,9.38215495 L19.6631799,12.6084865 L19.6631799,12.6085112 Z M21.5625572,21.5625464 L19.2013443,21.5625464 L19.2013443,19.2020506 L21.5625325,19.2020506 L21.5625325,21.5625464 L21.5625572,21.5625464 Z M18.482524,17.7645228 C18.0859548,17.7645228 17.7638273,18.0859713 17.7638273,18.4832496 L17.7638273,19.6631389 L14.6411818,19.6631389 L19.6631799,14.6411775 L19.6631799,17.7644981 L18.4825487,17.7644981 L18.482524,17.7645228 Z M19.6631552,7.34943922 L7.34942779,19.6631636 L5.23622215,19.6631636 L5.23622215,18.7778633 L18.7785845,5.23550191 L19.6631552,5.23550191 L19.6631552,7.34943922 L19.6631552,7.34943922 Z" id="形状"></path>
                    </g>
                </g>
            </g>
        </g>
    </g>
</svg>