<svg id="a5b2fe84-cabf-4dca-9834-16610104d26d" data-name="图层 1" xmlns="http://www.w3.org/2000/svg" xmlns:xlink="http://www.w3.org/1999/xlink" width="13.1mm" height="13.1mm" viewBox="0 0 37 37">
  <defs>
    <linearGradient id="bd2bd900-fa52-4798-886b-b8a42284e3bd" data-name="未命名的渐变 6" x1="-272.39" y1="414.73" x2="-272.39" y2="413.73" gradientTransform="matrix(16.23, 0, 0, -15.28, 4440.87, 6347.79)" gradientUnits="userSpaceOnUse">
      <stop offset="0" stop-color="#41e2de"/>
      <stop offset="1" stop-color="#1fc1b9"/>
    </linearGradient>
  </defs>
  <title>data-analysis-home-icon</title>
  <g id="acb5ab8f-49c1-49b7-b846-6269dd170ef8" data-name="首页">
    <rect x="0.5" y="0.5" width="36" height="36" style="fill-opacity: 0"/>
    <path id="b57f4a2c-88d5-493c-89d5-5080bdcf7efc" data-name="路径" d="M1,19.4a18,18,0,1,0,18-18A18.1,18.1,0,0,0,1,19.4Z" transform="translate(-0.5 -0.9)" style="fill: none;stroke: #0f9790"/>
    <path d="M27,19a1.3,1.3,0,0,1-1.2.8h-.5v5.4A1.8,1.8,0,0,1,23.5,27H20.4V23.4a.5.5,0,0,0-.5-.4H18.1a.5.5,0,0,0-.5.4V27H14.5a1.8,1.8,0,0,1-1.8-1.8V19.8h-.4A1.3,1.3,0,0,1,11,19a1.2,1.2,0,0,1,.4-1.5l6.7-5.4a1.3,1.3,0,0,1,1.8,0l6.7,5.4A1.2,1.2,0,0,1,27,19Z" transform="translate(-0.5 -0.9)" style="fill: url(#bd2bd900-fa52-4798-886b-b8a42284e3bd)"/>
  </g>
</svg>
