<svg id="e6fa7d08-edec-42a9-846d-1b0dcef79139" data-name="图层 1" xmlns="http://www.w3.org/2000/svg" xmlns:xlink="http://www.w3.org/1999/xlink" width="48" height="48" viewBox="0 0 48 48">
  <defs>
    <linearGradient id="b9031fe2-ef3c-4399-865a-7f414334caa9" data-name="未命名的渐变 9" x1="103.92" y1="436.78" x2="103.92" y2="435.78" gradientTransform="matrix(47, 0, 0, -47, -4860.14, 20529.23)" gradientUnits="userSpaceOnUse">
      <stop offset="0" stop-color="#25b1b5" stop-opacity="0.2"/>
      <stop offset="1" stop-color="#10797e" stop-opacity="0"/>
    </linearGradient>
    <linearGradient id="a76b5e04-faf7-48bd-a1b1-2539bfe5c908" data-name="未命名的渐变 10" x1="99.42" y1="431.7" x2="99.42" y2="430.7" gradientTransform="matrix(34, 0, 0, -29, -3356.24, 12526.3)" gradientUnits="userSpaceOnUse">
      <stop offset="0" stop-color="#03f0b4"/>
      <stop offset="1" stop-color="#07f9db"/>
    </linearGradient>
    <linearGradient id="e7e83330-a9d0-4b6a-a7bd-be003ada74d0" data-name="未命名的渐变 11" x1="97.84" y1="389.97" x2="97.84" y2="388.97" gradientTransform="matrix(31, 0, 0, -7, -3000.68, 2758.89)" xlink:href="#a76b5e04-faf7-48bd-a1b1-2539bfe5c908"/>
  </defs>
  <title>streets</title>
  <g>
    <rect x="0.5" y="0.5" width="47" height="47" style="stroke: #10797e;stroke-opacity: 0.5190395712852478;opacity: 0.6139881014823914;isolation: isolate;fill: url(#b9031fe2-ef3c-4399-865a-7f414334caa9)"/>
    <g>
      <path d="M14.1,21.4h2.5V19H14.1Zm12.2,5h1l.5-.3,1.4-1a7.2,7.2,0,0,1,2-.9V21.4H26.4v5Zm13.5-9.6a7.5,7.5,0,0,1-4.3-2,10.7,10.7,0,0,1-3.2-4.7h-.1V9.8h0l-.2-.2H30.7a.2.2,0,0,0-.2.2h-.1V10h0A12.8,12.8,0,0,1,27.9,14a9.2,9.2,0,0,1-2.7-1.6A12.3,12.3,0,0,1,22,7.6h0V7.3h0l-.3-.2H20a.1.1,0,0,0-.1.1h-.1c-.1,0-.1.1-.2.2h0a11.3,11.3,0,0,1-3.2,4.8,6.4,6.4,0,0,1-5.2,1.9,2.9,2.9,0,0,1-2-1.6,1.2,1.2,0,0,0-1.6-.5A1.3,1.3,0,0,0,7,13.7a5.4,5.4,0,0,0,3.1,2.8v16a1.2,1.2,0,0,0,2.4,0V16.8a10.7,10.7,0,0,0,5.6-2.6,21.6,21.6,0,0,0,2.7-3.3,14,14,0,0,0,2.7,3.3,10.7,10.7,0,0,0,2.2,1.5c-1.8,1.3-3.9,1.9-5.1.6a1.2,1.2,0,0,0-1.2-.5,1.2,1.2,0,0,0-.9.9,1.1,1.1,0,0,0,.4,1.3,3.4,3.4,0,0,0,1.7,1.1V34.9a1.2,1.2,0,0,0,2.4,0V19.4h.6a11.1,11.1,0,0,0,5-2.7,17,17,0,0,0,2.7-3.3A17,17,0,0,0,34,16.6a13.2,13.2,0,0,0,2.5,1.6v6.5l1,.7,1.1.9h.2V19l1.1.2h0a1.2,1.2,0,0,0,1-1.3,1.1,1.1,0,0,0-1.1-1.1Z" transform="translate(0.1 -0.1)" style="fill: url(#a76b5e04-faf7-48bd-a1b1-2539bfe5c908)"/>
      <path d="M47.5,34.6c-.7-.6-3.3-3.8-4.1-4.5s-2.3-1-4.6-1H35.7l3.9,7h6.2c2.6,0,2.4-.9,1.7-1.5ZM22,29.9c-1,.8-3.4,3.6-4.5,4.6s-.5,1.6,2.4,1.6h5.3l4-7h-4c-1.8,0-2.3.1-3.3.8Zm8.3,4-.4,2.2h4.5L34,33.9Zm3.1-3.1H30.9l-.4,2.4h3.2l-.3-2.4Zm.1-1.7H31.3l-.2,1.2h2.6Z" transform="translate(0.1 -0.1)" style="fill: url(#e7e83330-a9d0-4b6a-a7bd-be003ada74d0)"/>
    </g>
  </g>
</svg>
