<svg id="f63daf53-5cdb-4d9e-9a38-75727b48aec4" data-name="图层 1" xmlns="http://www.w3.org/2000/svg" xmlns:xlink="http://www.w3.org/1999/xlink" width="48" height="48" viewBox="0 0 48 48">
  <defs>
    <linearGradient id="afd3e8a1-e81f-4dfd-b6c1-671cae0153d0" data-name="未命名的渐变 6" x1="99.37" y1="436.78" x2="99.37" y2="435.78" gradientTransform="matrix(47, 0, 0, -47, -4646.39, 20529.23)" gradientUnits="userSpaceOnUse">
      <stop offset="0" stop-color="#25b1b5" stop-opacity="0.2"/>
      <stop offset="1" stop-color="#10797e" stop-opacity="0"/>
    </linearGradient>
    <linearGradient id="adc432b6-5339-494a-aa8a-eb891f4836e6" data-name="未命名的渐变 7" x1="30.47" y1="396.85" x2="30.47" y2="395.85" gradientTransform="matrix(9, 0, 0, -8, -254.51, 3196.87)" gradientUnits="userSpaceOnUse">
      <stop offset="0" stop-color="#03f0b4"/>
      <stop offset="1" stop-color="#07f9db"/>
    </linearGradient>
    <linearGradient id="f137fbeb-e438-41db-b42b-28764d6e7871" data-name="未命名的渐变 8" x1="94.38" y1="431.7" x2="94.38" y2="430.7" gradientTransform="matrix(36, 0, 0, -29, -3372.62, 12526.3)" xlink:href="#adc432b6-5339-494a-aa8a-eb891f4836e6"/>
  </defs>
  <title>Repeat-Group</title>
  <g>
    <rect x="0.5" y="0.5" width="47" height="47" style="stroke: #10797e;stroke-opacity: 0.5190395712852478;opacity: 0.6139881014823914;isolation: isolate;fill: url(#afd3e8a1-e81f-4dfd-b6c1-671cae0153d0)"/>
    <g>
      <path d="M15.2,22.1h3.2v2.8H15.2Zm5.8,0h3.2v2.8H21Zm-5.8,5.2h3.2v2.8H15.2Zm5.8,0h3.2v2.8H21Z" transform="translate(-0.2 -0.1)" style="fill: url(#adc432b6-5339-494a-aa8a-eb891f4836e6)"/>
      <path d="M39.2,33.3V29.8H43l-2.9-3.4H43l-2.9-3.5h2.4L38,17c0-.1-.2-.1-.3,0l-4.4,5.9h2.4l-3,3.5h3l-3,3.4h3.8v3.5H29.1V20.6H33L20.1,7.1,7.3,20.9h3.9V33.3h-4v2.8h36V33.3ZM26.4,20.6V33.3H13.9V20.9H15V18.3H13.2l7-7.5,6.9,7.3H25.3v2.5Z" transform="translate(-0.2 -0.1)" style="fill: url(#f137fbeb-e438-41db-b42b-28764d6e7871)"/>
    </g>
  </g>
</svg>
