<svg id="a9a996e0-e27d-432d-bdcf-eb46245142a8" data-name="图层 1" xmlns="http://www.w3.org/2000/svg" xmlns:xlink="http://www.w3.org/1999/xlink" width="438.5" height="32" viewBox="0 0 438.5 32">
  <defs>
    <filter id="b5dfba63-4920-4210-9610-cca9ef86d836" x="-7.11" y="-18.06" width="103.1" height="142.6" name="filter-6">
      <feOffset result="shadowOffsetOuter1" dy="3" in="SourceAlpha"/>
      <feGaussianBlur result="shadowBlurOuter1" stdDeviation="2" in="shadowOffsetOuter1"/>
      <feColorMatrix values="0 0 0 0 0.14 0 0 0 0 0.55 0 0 0 0 0.57 0 0 0 1 0" in="shadowBlurOuter1"/>
    </filter>
    <linearGradient id="ab23dd7a-06e2-4815-b923-9b0f35fbb331" data-name="未命名的渐变 4" x1="-73.1" y1="426.98" x2="-73.1" y2="426.22" gradientTransform="matrix(482.22, 0, 0, -35.19, 35476.39, 15034.92)" gradientUnits="userSpaceOnUse">
      <stop offset="0" stop-color="#fdfdfc"/>
      <stop offset="1" stop-color="#9fd6da"/>
    </linearGradient>
  </defs>
  <title>data-analysis-logo-text</title>
  <g>
    <g style="filter: url(#b5dfba63-4920-4210-9610-cca9ef86d836)">
      <path id="b0e9dec3-615c-4434-bee7-6e0ed8a9ce02" data-name="path-5" d="M11.9,13.6,14.1,10l-1.2-.9L11.5,7.9,10.1,6.8,8.9,6h0L6.5,9.2l1.3.9,1.4,1.2,1.5,1.3,1.2,1ZM25.5,37.1a20.9,20.9,0,0,0,1.6-2.7A11.7,11.7,0,0,0,28,32a16.9,16.9,0,0,0,.5-2.4c.1-.8.1-1.8.2-2.8h2.9V31a3.9,3.9,0,0,1-.2,1.3c-.2.3-.5.4-1,.5H28.8l1.1,3.7h1.4l2-.4a2.4,2.4,0,0,0,1.2-.7,1.7,1.7,0,0,0,.6-1.2,10.6,10.6,0,0,0,.2-2.1h0V7.1H25V23.6c0,1.3,0,2.4-.1,3.4a11.1,11.1,0,0,1-.4,2.8,15.2,15.2,0,0,1-.9,2.5h0V19.2H20.7V15.3H24V11.2H20.7V6.3L17,6.1v5.1H13.8v4.1H17v3.9H14V33.4h9c-.1.3-.3.5-.4.8l-.6.9h0Zm6.1-22H28.7V11.3h2.9Zm-20.5,7,2.3-3.6-1.2-1.1-1.5-1.2L9.2,15,7.8,14h0L5.5,17.1l1.3,1.1a10,10,0,0,0,1.5,1.3l1.5,1.4,1.3,1.2Zm20.5.7H28.7V19.1h2.9ZM9.7,36.3c.4-.8.7-1.8,1.2-2.8l1.2-3.3c.4-1.1.8-2.2,1.1-3.2l.8-2.6h0l-1.7-.5-2.1-.7a23.8,23.8,0,0,1-.8,2.6c-.3,1-.7,2-1.1,3.1L7.1,32.1c-.5,1-.8,1.9-1.1,2.6H6ZM20,29.4H17.6V23.2H20Zm33.3,7.2V6.1l-4.5-.2v7.7H41.7v4.5h7.1V26l-2.2,1.1-2.3,1-2.3,1-2,.7h0l1.3,4.6,1.8-.8,2-.9,2-1,1.7-1h0v5.9Zm9.5-.3h4.3a4,4,0,0,0,2.2-.9,4.5,4.5,0,0,0,1.1-2.5c.1-.5.1-1,.2-1.6s.1-1.1.2-1.7a9.1,9.1,0,0,0,.1-1.7h0l-4.3-1.5a6.1,6.1,0,0,1-.1,1.4c0,.4-.1.9-.1,1.3s-.1,1-.1,1.5a1.6,1.6,0,0,1-.5,1.1,1.3,1.3,0,0,1-.9.4H61.8a.7.7,0,0,1-.7-.5,3.1,3.1,0,0,1-.2-1.1h0V19.7a35.8,35.8,0,0,0,5.2-2.5l4-2.6h0l-2.4-3.9L64.6,13c-1.2.7-2.4,1.5-3.7,2.1h0V6.2l-4.5-.3V32.3a3.6,3.6,0,0,0,3.4,3.9h3Zm38.5-.1V18H91l3.6-1.5a33.7,33.7,0,0,0,3.2-1.9h0l-1.8-3c.6.4,1.1.9,1.8,1.3l1.8,1.4,1.6,1.3,1.3,1.1h0l2.2-3.7-1.9-1.5-2.4-1.7L97.9,8,96,6.7h0L93.6,9.9a2.4,2.4,0,0,1,.9.6l1.1.8-2,1.1a12.4,12.4,0,0,1-2,1h0V6l-4.5-.2v8.5h2.6a60.7,60.7,0,0,1-7.2,2.4c-2.6.7-5.5,1.4-8.7,2h0l1.1,4.1,1.9-.5,1.9-.4h0V36.2ZM76.8,17.4l2.3-1.7,2.3-1.9,2.3-2L85.6,10h0L82.8,7A14.9,14.9,0,0,1,81,8.7l-2.1,1.9-2.2,1.8L74.4,14h0Zm20.1,5.7H83.1V21.4H96.9Zm0,4.9H83.1V26.3H96.9Zm0,4.9H83.1V31.2H96.9Zm19.3,3.8V21.9l.6,1,.6,1.1h0l2.9-2.6h6.4V23h-7.3V34.7h3.8V26.9h3.5v9.7h3.9V26.9h3.6v2.5a1.7,1.7,0,0,1-.3,1.2c-.1.2-.5.4-1.1.4h0l-1.4.2,1.1,3.7,1.6-.2,1.9-.3a3.5,3.5,0,0,0,1.2-.7,2.3,2.3,0,0,0,.6-1.2,9.7,9.7,0,0,0,.1-1.8h0V23h-7.3V21.3H137V8.3h-7.2l.8-2.5L126,5.6l-.8,2.7h-5V21.2l-1.4-1.9-1.5-2h0l-1.1,1V15.4h3.1V11.5h-3.1V6.3l-3.9-.2v5.4h-3.4v3.9h3c-.3.9-.7,1.9-1.1,2.8a23.9,23.9,0,0,1-1.3,2.8,21,21,0,0,1-1.3,2.6,11.7,11.7,0,0,1-1.2,2h0l2.7,3a26,26,0,0,0,1.3-2.4c.4-.9.9-1.7,1.3-2.6h0V36.7Zm16.7-23.6h-8.6V11.7h8.6Zm0,4.7h-8.6V16.5h8.6Zm31.5-2.9v-2h7.4V8.8h-7.4V5.9l-4.1-.2V8.8h-5.8V5.9l-4.1-.2V8.8h-7.2v4.1h7.2v1.7h4.1V12.9h5.8v2ZM151.6,36.8V26.7l1.4,3.9,2.2-1,2-1h0v2.9c0,1.7.4,3,1.1,3.6a5.5,5.5,0,0,0,3.4,1.2,45.1,45.1,0,0,0,5.2,0l2.4-.3a5.2,5.2,0,0,0,1.5-.7,4.2,4.2,0,0,0,.9-1.4c.2-.6.4-1.4.6-2.3s.1-.8.2-1.3a7.6,7.6,0,0,0,.1-1.4h0l-4.1-1.3a5.3,5.3,0,0,1-.1,1.3,4.9,4.9,0,0,1-.1,1.2,3,3,0,0,1-.2,1,1,1,0,0,1-.4.5.9.9,0,0,1-.7.3l-1.1.2a12.2,12.2,0,0,1-2.7,0h-.8l-.5-.3c-.2-.2-.2-.4-.3-.6v-.9h0V26.3c1.9-1.1,3.6-2.2,5.3-3.4a57.4,57.4,0,0,0,4.7-3.5h0l-2.5-3.6c-1.1,1-2.3,1.9-3.6,2.9s-2.6,1.7-3.9,2.6h0V15.8l-4.4-.2v8.1a24.4,24.4,0,0,1-2.8,1.4l-2.8,1.3h0V20.2l1.1-1.7,1-1.8h0l-3.7-2a18.2,18.2,0,0,1-1.9,3.1,18.9,18.9,0,0,1-2,2.7l-2.2,2.4-2.5,2.3h0l2.1,4.1,2-1.9,1.8-1.9h0V36.8Zm32.9-.4V24.3l1.2,1.5.9,1.3h0l2-2.5v2.9h6.5v8.9h4V27.5h6.5V11.1h-6.5V6l-4-.2v5.3h-6.5V23.6a14,14,0,0,0-1.6-2l-1.5-1.7h0l-1,.8v-2h3.3V14.5h-3.3V11.1l2-.5,1.7-.4h0l-.6-4-2.7.6-2.9.6-2.8.5-2.6.4h0l.4,4,1.7-.2,1.8-.3h0v2.7h-3.8v4.2h3.6a41.6,41.6,0,0,1-2.4,4.7c-.9,1.6-1.9,3-2.8,4.3h0l2.6,3.1,1.5-2.2,1.3-2.4h0V36.4Zm10.6-13.1h-2.6V15.2h2.6Zm6.5,0h-2.5V15.2h2.5ZM218,36.5V21.8l2,2.5h0l2.1-2.1V32.4h-2.5v3.5h21.3V32.4h-2.3V13.3h-6.4V11.6h7.3V8h-7.3V6.1l-3.9-.2V8h-7.1v3.6h7.1v1.7h-6.2V21l-1.6-1.7-1.4-1.5h0L218,19V15.5h2.7V11.3H218v-5l-3.9-.2v5.2h-3.4v4.2h3c-.3.9-.6,1.9-1,2.8a23.9,23.9,0,0,1-1.3,2.8l-1.2,2.5-1.3,2.1h0l2.5,3.6a42.5,42.5,0,0,0,2.7-5.2h0V36.5Zm16.7-18.2h-8.8V16.8h8.8Zm0,4.6h-8.8V21.4h8.8Zm0,4.6h-8.8V26h8.8Zm0,4.9h-8.8V30.6h8.8ZM252,36.5V13.6c.4-.8.7-1.6,1-2.3s.5-1.5.8-2.2h0v3.6h20.6V8.6h-8.2l-.6-2.8-4.4.2.6,2.6h-7.9a14.6,14.6,0,0,0,.7-1.9h0l-3.8-1.2L249.6,9c-.5,1.3-1,2.6-1.6,3.9a38.4,38.4,0,0,1-2.1,4,35.1,35.1,0,0,1-2.7,4h0l3,3.2.9-1.3.8-1.3h0v15ZM272.6,18V14.3H255.4V18Zm0,5.2V19.5H255.4v3.7Zm0,12.7v-11H255.4v11Zm-4.4-4h-8.5V28.7h8.5Zm25.8-.2,3.2-2.6a14.5,14.5,0,0,0-1.2-1.9l-1.5-1.9h10.2V7.9H293.9l.3-1.2c.1-.3.1-.7.2-1h0l-4.6-.4a10.4,10.4,0,0,0-.3,1.2l-.3,1.4h-7.8V25.3h10.8l-1.8,1.4,1,1.1,1,1.3.9,1.4a7.5,7.5,0,0,1,.7,1.2Zm6.5-18.9H285.6V11.3h14.9Zm0,4.6H285.6V15.8h14.9Zm0,4.5H285.6V20.4h14.9Zm5,13.5,3.4-2.4-1-1.8-1.3-2a12.7,12.7,0,0,0-1.3-1.9l-1.2-1.7h0l-3.3,2.2,1.1,1.4,1.3,2a23.9,23.9,0,0,1,1.3,2.1l1,2.1Zm-24.7.4c.3-.6.7-1.1,1-1.8a21.2,21.2,0,0,0,1.1-2.1,20.4,20.4,0,0,0,.9-2.2c.3-.8.6-1.6.8-2.3h0L281,26.1c-.2.6-.4,1.2-.7,1.9l-1,2.1a19.8,19.8,0,0,1-1.1,2l-1,1.7h0Zm8.7.6c2.3.1,4.7.1,7.1,0l2-.2a3,3,0,0,0,1.4-.6,2.4,2.4,0,0,0,.9-1.1,7.8,7.8,0,0,0,.5-1.8c0-.5.1-1,.1-1.6s.1-1.1.2-1.4h0L298,28.3c-.1.4-.1.9-.2,1.4a6.1,6.1,0,0,1-.2,1.5,1.4,1.4,0,0,1-.2.7c0,.2-.1.3-.3.4l-.5.2h-1a33.8,33.8,0,0,1-4.5,0,2.4,2.4,0,0,1-1.3-.4c-.3-.2-.4-.6-.4-1.2h0V26.5l-4.2-.2v5.6a12.7,12.7,0,0,0,.2,2.2,4,4,0,0,0,.7,1.3,3.1,3.1,0,0,0,1.4.7A5.6,5.6,0,0,0,289.5,36.4Zm28.2-21.9,3.3-2.8-1-1.4-1.1-1.6-1.2-1.5L316.6,6h0l-3.2,2.2,1.1,1.4,1.2,1.7a17.4,17.4,0,0,1,1.1,1.8l.9,1.4Zm5.1,22.6a23.3,23.3,0,0,0,1.4-3.3,26.1,26.1,0,0,0,.8-3.5c.2-1.3.3-2.7.4-4.3V20.5h0V10.9h12V31.7a1.6,1.6,0,0,1-.3,1.1,2.1,2.1,0,0,1-1.3.3h0l-2.2.3,1.3,3.4,2.2-.2a6.6,6.6,0,0,0,2.1-.3l1.3-.7a3.1,3.1,0,0,0,.6-1.3,6.2,6.2,0,0,0,.2-2.1h0V7H321.7V18.9c0,2.1,0,3.8-.1,5.3a21.7,21.7,0,0,1-.3,3.8h0L320,25.9l-.4.5-.5.6h0V15.5h-6.6v4.2h2.6V30.6a2.4,2.4,0,0,1-.5,1h0l2.6,2.9a2.1,2.1,0,0,1,.4-.6,1,1,0,0,0,.4-.5l1.5-1.7,1.4-1.5a22.5,22.5,0,0,1-.8,2.4L318.9,35h0ZM336.7,22V18.4h-3.6V16.6h3.2V13.1h-3.2V11.2h-3.6v2h-3.1v3.5h3.1v1.8h-3.3V22ZM336,32.4V23.2h-9.5v9.2Zm-3.5-3.1h-2.6V26.5h2.6Zm19.4,8,6.3-1.6a42.3,42.3,0,0,0,5.1-1.9,53,53,0,0,0,5.2,1.7c1.9.5,4.1.9,6.7,1.4h0l1.3-3.9-4.8-.7-3.9-.8,3-2.1,2.5-2.3h0V23.7H353.4V27h3.8l-1.9,1.8,1.8,1.4,1.7,1.2-3.7,1-4.3.8a24.1,24.1,0,0,0,.8-2.5l.6-2.8.3-3.4c.1-1.2.1-2.6.1-4.1h0V17.9h3.9v4.7H371V17.9h4.9V14.3H371V12.7l-4.2-.2v1.8h-6.2V12.7l-4.1-.2v1.8h-3.9V12.2H376V8.4H364.9l-.6-2.8h-4.6l.6,2.7H348.5V19.1c0,2.1-.1,3.9-.2,5.3a34.2,34.2,0,0,1-.5,3.9,29.9,29.9,0,0,1-1,3.2,35.9,35.9,0,0,1-1.7,3.4h0l3.8,2.2c.3-.6.6-1.1.8-1.6s.5-1,.8-1.6h0Zm14.9-18h-6.2V17.9h6.2Zm-3.7,10.5-2.2-1.3a9.5,9.5,0,0,1-2-1.5h8.6a10.1,10.1,0,0,1-2,1.4Zm34.5,6.5V26.5h12.9V22.1H397.6V10.9h11V6.6H382.2v4.3h11V22.1H380.3v4.4h12.9v9.8Zm5.1-14.5L404,20l1.5-2.2,1.4-2.2a21.9,21.9,0,0,0,1.1-1.9h0l-3.5-2.2a13.6,13.6,0,0,1-1.1,2c-.4.8-.9,1.5-1.4,2.3l-1.5,2.1-1.2,1.7h0Zm-14.6,0,3.4-2.5-1-1.8c-.5-.6-.9-1.3-1.4-2l-1.5-2.1a14.3,14.3,0,0,0-1.5-1.8h0L382.8,14l1.5,1.9c.5.7,1,1.4,1.4,2.1l1.4,2.1,1,1.7Zm53.1-.9L444,18l-2.1-2.4-2.5-2.7-2.5-2.5-2.1-2h0L432,10.9l1.7,1.6,2,2.2H423.2a11.4,11.4,0,0,0,1.4-1.2l1.8-2,2-2.4,1.9-2.4h0l-4.1-1.8-1.8,2.5a32.7,32.7,0,0,1-2.4,2.7,26.6,26.6,0,0,1-2.3,2.4,10.1,10.1,0,0,1-1.8,1.5,2.1,2.1,0,0,1-1,.6l-1.7.5h0l1.1,4.3h1.4l2.7-.2,3.7-.2h5.2l3.5-.2h6.6l1.8,2.1ZM441.1,36V21.7H417.7V36Zm-4.4-4.2H422.1V25.9h14.6Z" transform="translate(-5.5 -5.3)" style="fill: #040000"/>
    </g>
    <path d="M11.9,13.6,14.1,10l-1.2-.9L11.5,7.9,10.1,6.8,8.9,6h0L6.5,9.2l1.3.9,1.4,1.2,1.5,1.3,1.2,1ZM25.5,37.1a20.9,20.9,0,0,0,1.6-2.7A11.7,11.7,0,0,0,28,32a16.9,16.9,0,0,0,.5-2.4c.1-.8.1-1.8.2-2.8h2.9V31a3.9,3.9,0,0,1-.2,1.3c-.2.3-.5.4-1,.5H28.8l1.1,3.7h1.4l2-.4a2.4,2.4,0,0,0,1.2-.7,1.7,1.7,0,0,0,.6-1.2,10.6,10.6,0,0,0,.2-2.1h0V7.1H25V23.6c0,1.3,0,2.4-.1,3.4a11.1,11.1,0,0,1-.4,2.8,15.2,15.2,0,0,1-.9,2.5h0V19.2H20.7V15.3H24V11.2H20.7V6.3L17,6.1v5.1H13.8v4.1H17v3.9H14V33.4h9c-.1.3-.3.5-.4.8l-.6.9h0Zm6.1-22H28.7V11.3h2.9Zm-20.5,7,2.3-3.6-1.2-1.1-1.5-1.2L9.2,15,7.8,14h0L5.5,17.1l1.3,1.1a10,10,0,0,0,1.5,1.3l1.5,1.4,1.3,1.2Zm20.5.7H28.7V19.1h2.9ZM9.7,36.3c.4-.8.7-1.8,1.2-2.8l1.2-3.3c.4-1.1.8-2.2,1.1-3.2l.8-2.6h0l-1.7-.5-2.1-.7a23.8,23.8,0,0,1-.8,2.6c-.3,1-.7,2-1.1,3.1L7.1,32.1c-.5,1-.8,1.9-1.1,2.6H6ZM20,29.4H17.6V23.2H20Zm33.3,7.2V6.1l-4.5-.2v7.7H41.7v4.5h7.1V26l-2.2,1.1-2.3,1-2.3,1-2,.7h0l1.3,4.6,1.8-.8,2-.9,2-1,1.7-1h0v5.9Zm9.5-.3h4.3a4,4,0,0,0,2.2-.9,4.5,4.5,0,0,0,1.1-2.5c.1-.5.1-1,.2-1.6s.1-1.1.2-1.7a9.1,9.1,0,0,0,.1-1.7h0l-4.3-1.5a6.1,6.1,0,0,1-.1,1.4c0,.4-.1.9-.1,1.3s-.1,1-.1,1.5a1.6,1.6,0,0,1-.5,1.1,1.3,1.3,0,0,1-.9.4H61.8a.7.7,0,0,1-.7-.5,3.1,3.1,0,0,1-.2-1.1h0V19.7a35.8,35.8,0,0,0,5.2-2.5l4-2.6h0l-2.4-3.9L64.6,13c-1.2.7-2.4,1.5-3.7,2.1h0V6.2l-4.5-.3V32.3a3.6,3.6,0,0,0,3.4,3.9h3Zm38.5-.1V18H91l3.6-1.5a33.7,33.7,0,0,0,3.2-1.9h0l-1.8-3c.6.4,1.1.9,1.8,1.3l1.8,1.4,1.6,1.3,1.3,1.1h0l2.2-3.7-1.9-1.5-2.4-1.7L97.9,8,96,6.7h0L93.6,9.9a2.4,2.4,0,0,1,.9.6l1.1.8-2,1.1a12.4,12.4,0,0,1-2,1h0V6l-4.5-.2v8.5h2.6a60.7,60.7,0,0,1-7.2,2.4c-2.6.7-5.5,1.4-8.7,2h0l1.1,4.1,1.9-.5,1.9-.4h0V36.2ZM76.8,17.4l2.3-1.7,2.3-1.9,2.3-2L85.6,10h0L82.8,7A14.9,14.9,0,0,1,81,8.7l-2.1,1.9-2.2,1.8L74.4,14h0Zm20.1,5.7H83.1V21.4H96.9Zm0,4.9H83.1V26.3H96.9Zm0,4.9H83.1V31.2H96.9Zm19.3,3.8V21.9l.6,1,.6,1.1h0l2.9-2.6h6.4V23h-7.3V34.7h3.8V26.9h3.5v9.7h3.9V26.9h3.6v2.5a1.7,1.7,0,0,1-.3,1.2c-.1.2-.5.4-1.1.4h0l-1.4.2,1.1,3.7,1.6-.2,1.9-.3a3.5,3.5,0,0,0,1.2-.7,2.3,2.3,0,0,0,.6-1.2,9.7,9.7,0,0,0,.1-1.8h0V23h-7.3V21.3H137V8.3h-7.2l.8-2.5L126,5.6l-.8,2.7h-5V21.2l-1.4-1.9-1.5-2h0l-1.1,1V15.4h3.1V11.5h-3.1V6.3l-3.9-.2v5.4h-3.4v3.9h3c-.3.9-.7,1.9-1.1,2.8a23.9,23.9,0,0,1-1.3,2.8,21,21,0,0,1-1.3,2.6,11.7,11.7,0,0,1-1.2,2h0l2.7,3a26,26,0,0,0,1.3-2.4c.4-.9.9-1.7,1.3-2.6h0V36.7Zm16.7-23.6h-8.6V11.7h8.6Zm0,4.7h-8.6V16.5h8.6Zm31.5-2.9v-2h7.4V8.8h-7.4V5.9l-4.1-.2V8.8h-5.8V5.9l-4.1-.2V8.8h-7.2v4.1h7.2v1.7h4.1V12.9h5.8v2ZM151.6,36.8V26.7l1.4,3.9,2.2-1,2-1h0v2.9c0,1.7.4,3,1.1,3.6a5.5,5.5,0,0,0,3.4,1.2,45.1,45.1,0,0,0,5.2,0l2.4-.3a5.2,5.2,0,0,0,1.5-.7,4.2,4.2,0,0,0,.9-1.4c.2-.6.4-1.4.6-2.3s.1-.8.2-1.3a7.6,7.6,0,0,0,.1-1.4h0l-4.1-1.3a5.3,5.3,0,0,1-.1,1.3,4.9,4.9,0,0,1-.1,1.2,3,3,0,0,1-.2,1,1,1,0,0,1-.4.5.9.9,0,0,1-.7.3l-1.1.2a12.2,12.2,0,0,1-2.7,0h-.8l-.5-.3c-.2-.2-.2-.4-.3-.6v-.9h0V26.3c1.9-1.1,3.6-2.2,5.3-3.4a57.4,57.4,0,0,0,4.7-3.5h0l-2.5-3.6c-1.1,1-2.3,1.9-3.6,2.9s-2.6,1.7-3.9,2.6h0V15.8l-4.4-.2v8.1a24.4,24.4,0,0,1-2.8,1.4l-2.8,1.3h0V20.2l1.1-1.7,1-1.8h0l-3.7-2a18.2,18.2,0,0,1-1.9,3.1,18.9,18.9,0,0,1-2,2.7l-2.2,2.4-2.5,2.3h0l2.1,4.1,2-1.9,1.8-1.9h0V36.8Zm32.9-.4V24.3l1.2,1.5.9,1.3h0l2-2.5v2.9h6.5v8.9h4V27.5h6.5V11.1h-6.5V6l-4-.2v5.3h-6.5V23.6a14,14,0,0,0-1.6-2l-1.5-1.7h0l-1,.8v-2h3.3V14.5h-3.3V11.1l2-.5,1.7-.4h0l-.6-4-2.7.6-2.9.6-2.8.5-2.6.4h0l.4,4,1.7-.2,1.8-.3h0v2.7h-3.8v4.2h3.6a41.6,41.6,0,0,1-2.4,4.7c-.9,1.6-1.9,3-2.8,4.3h0l2.6,3.1,1.5-2.2,1.3-2.4h0V36.4Zm10.6-13.1h-2.6V15.2h2.6Zm6.5,0h-2.5V15.2h2.5ZM218,36.5V21.8l2,2.5h0l2.1-2.1V32.4h-2.5v3.5h21.3V32.4h-2.3V13.3h-6.4V11.6h7.3V8h-7.3V6.1l-3.9-.2V8h-7.1v3.6h7.1v1.7h-6.2V21l-1.6-1.7-1.4-1.5h0L218,19V15.5h2.7V11.3H218v-5l-3.9-.2v5.2h-3.4v4.2h3c-.3.9-.6,1.9-1,2.8a23.9,23.9,0,0,1-1.3,2.8l-1.2,2.5-1.3,2.1h0l2.5,3.6a42.5,42.5,0,0,0,2.7-5.2h0V36.5Zm16.7-18.2h-8.8V16.8h8.8Zm0,4.6h-8.8V21.4h8.8Zm0,4.6h-8.8V26h8.8Zm0,4.9h-8.8V30.6h8.8ZM252,36.5V13.6c.4-.8.7-1.6,1-2.3s.5-1.5.8-2.2h0v3.6h20.6V8.6h-8.2l-.6-2.8-4.4.2.6,2.6h-7.9a14.6,14.6,0,0,0,.7-1.9h0l-3.8-1.2L249.6,9c-.5,1.3-1,2.6-1.6,3.9a38.4,38.4,0,0,1-2.1,4,35.1,35.1,0,0,1-2.7,4h0l3,3.2.9-1.3.8-1.3h0v15ZM272.6,18V14.3H255.4V18Zm0,5.2V19.5H255.4v3.7Zm0,12.7v-11H255.4v11Zm-4.4-4h-8.5V28.7h8.5Zm25.8-.2,3.2-2.6a14.5,14.5,0,0,0-1.2-1.9l-1.5-1.9h10.2V7.9H293.9l.3-1.2c.1-.3.1-.7.2-1h0l-4.6-.4a10.4,10.4,0,0,0-.3,1.2l-.3,1.4h-7.8V25.3h10.8l-1.8,1.4,1,1.1,1,1.3.9,1.4a7.5,7.5,0,0,1,.7,1.2Zm6.5-18.9H285.6V11.3h14.9Zm0,4.6H285.6V15.8h14.9Zm0,4.5H285.6V20.4h14.9Zm5,13.5,3.4-2.4-1-1.8-1.3-2a12.7,12.7,0,0,0-1.3-1.9l-1.2-1.7h0l-3.3,2.2,1.1,1.4,1.3,2a23.9,23.9,0,0,1,1.3,2.1l1,2.1Zm-24.7.4c.3-.6.7-1.1,1-1.8a21.2,21.2,0,0,0,1.1-2.1,20.4,20.4,0,0,0,.9-2.2c.3-.8.6-1.6.8-2.3h0L281,26.1c-.2.6-.4,1.2-.7,1.9l-1,2.1a19.8,19.8,0,0,1-1.1,2l-1,1.7h0Zm8.7.6c2.3.1,4.7.1,7.1,0l2-.2a3,3,0,0,0,1.4-.6,2.4,2.4,0,0,0,.9-1.1,7.8,7.8,0,0,0,.5-1.8c0-.5.1-1,.1-1.6s.1-1.1.2-1.4h0L298,28.3c-.1.4-.1.9-.2,1.4a6.1,6.1,0,0,1-.2,1.5,1.4,1.4,0,0,1-.2.7c0,.2-.1.3-.3.4l-.5.2h-1a33.8,33.8,0,0,1-4.5,0,2.4,2.4,0,0,1-1.3-.4c-.3-.2-.4-.6-.4-1.2h0V26.5l-4.2-.2v5.6a12.7,12.7,0,0,0,.2,2.2,4,4,0,0,0,.7,1.3,3.1,3.1,0,0,0,1.4.7A5.6,5.6,0,0,0,289.5,36.4Zm28.2-21.9,3.3-2.8-1-1.4-1.1-1.6-1.2-1.5L316.6,6h0l-3.2,2.2,1.1,1.4,1.2,1.7a17.4,17.4,0,0,1,1.1,1.8l.9,1.4Zm5.1,22.6a23.3,23.3,0,0,0,1.4-3.3,26.1,26.1,0,0,0,.8-3.5c.2-1.3.3-2.7.4-4.3V20.5h0V10.9h12V31.7a1.6,1.6,0,0,1-.3,1.1,2.1,2.1,0,0,1-1.3.3h0l-2.2.3,1.3,3.4,2.2-.2a6.6,6.6,0,0,0,2.1-.3l1.3-.7a3.1,3.1,0,0,0,.6-1.3,6.2,6.2,0,0,0,.2-2.1h0V7H321.7V18.9c0,2.1,0,3.8-.1,5.3a21.7,21.7,0,0,1-.3,3.8h0L320,25.9l-.4.5-.5.6h0V15.5h-6.6v4.2h2.6V30.6a2.4,2.4,0,0,1-.5,1h0l2.6,2.9a2.1,2.1,0,0,1,.4-.6,1,1,0,0,0,.4-.5l1.5-1.7,1.4-1.5a22.5,22.5,0,0,1-.8,2.4L318.9,35h0ZM336.7,22V18.4h-3.6V16.6h3.2V13.1h-3.2V11.2h-3.6v2h-3.1v3.5h3.1v1.8h-3.3V22ZM336,32.4V23.2h-9.5v9.2Zm-3.5-3.1h-2.6V26.5h2.6Zm19.4,8,6.3-1.6a42.3,42.3,0,0,0,5.1-1.9,53,53,0,0,0,5.2,1.7c1.9.5,4.1.9,6.7,1.4h0l1.3-3.9-4.8-.7-3.9-.8,3-2.1,2.5-2.3h0V23.7H353.4V27h3.8l-1.9,1.8,1.8,1.4,1.7,1.2-3.7,1-4.3.8a24.1,24.1,0,0,0,.8-2.5l.6-2.8.3-3.4c.1-1.2.1-2.6.1-4.1h0V17.9h3.9v4.7H371V17.9h4.9V14.3H371V12.7l-4.2-.2v1.8h-6.2V12.7l-4.1-.2v1.8h-3.9V12.2H376V8.4H364.9l-.6-2.8h-4.6l.6,2.7H348.5V19.1c0,2.1-.1,3.9-.2,5.3a34.2,34.2,0,0,1-.5,3.9,29.9,29.9,0,0,1-1,3.2,35.9,35.9,0,0,1-1.7,3.4h0l3.8,2.2c.3-.6.6-1.1.8-1.6s.5-1,.8-1.6h0Zm14.9-18h-6.2V17.9h6.2Zm-3.7,10.5-2.2-1.3a9.5,9.5,0,0,1-2-1.5h8.6a10.1,10.1,0,0,1-2,1.4Zm34.5,6.5V26.5h12.9V22.1H397.6V10.9h11V6.6H382.2v4.3h11V22.1H380.3v4.4h12.9v9.8Zm5.1-14.5L404,20l1.5-2.2,1.4-2.2a21.9,21.9,0,0,0,1.1-1.9h0l-3.5-2.2a13.6,13.6,0,0,1-1.1,2c-.4.8-.9,1.5-1.4,2.3l-1.5,2.1-1.2,1.7h0Zm-14.6,0,3.4-2.5-1-1.8c-.5-.6-.9-1.3-1.4-2l-1.5-2.1a14.3,14.3,0,0,0-1.5-1.8h0L382.8,14l1.5,1.9c.5.7,1,1.4,1.4,2.1l1.4,2.1,1,1.7Zm53.1-.9L444,18l-2.1-2.4-2.5-2.7-2.5-2.5-2.1-2h0L432,10.9l1.7,1.6,2,2.2H423.2a11.4,11.4,0,0,0,1.4-1.2l1.8-2,2-2.4,1.9-2.4h0l-4.1-1.8-1.8,2.5a32.7,32.7,0,0,1-2.4,2.7,26.6,26.6,0,0,1-2.3,2.4,10.1,10.1,0,0,1-1.8,1.5,2.1,2.1,0,0,1-1,.6l-1.7.5h0l1.1,4.3h1.4l2.7-.2,3.7-.2h5.2l3.5-.2h6.6l1.8,2.1ZM441.1,36V21.7H417.7V36Zm-4.4-4.2H422.1V25.9h14.6Z" transform="translate(-5.5 -5.3)" style="fill: #fff"/>
    <path d="M11.9,13.6,14.1,10l-1.2-.9L11.5,7.9,10.1,6.8,8.9,6h0L6.5,9.2l1.3.9,1.4,1.2,1.5,1.3,1.2,1ZM25.5,37.1a20.9,20.9,0,0,0,1.6-2.7A11.7,11.7,0,0,0,28,32a16.9,16.9,0,0,0,.5-2.4c.1-.8.1-1.8.2-2.8h2.9V31a3.9,3.9,0,0,1-.2,1.3c-.2.3-.5.4-1,.5H28.8l1.1,3.7h1.4l2-.4a2.4,2.4,0,0,0,1.2-.7,1.7,1.7,0,0,0,.6-1.2,10.6,10.6,0,0,0,.2-2.1h0V7.1H25V23.6c0,1.3,0,2.4-.1,3.4a11.1,11.1,0,0,1-.4,2.8,15.2,15.2,0,0,1-.9,2.5h0V19.2H20.7V15.3H24V11.2H20.7V6.3L17,6.1v5.1H13.8v4.1H17v3.9H14V33.4h9c-.1.3-.3.5-.4.8l-.6.9h0Zm6.1-22H28.7V11.3h2.9Zm-20.5,7,2.3-3.6-1.2-1.1-1.5-1.2L9.2,15,7.8,14h0L5.5,17.1l1.3,1.1a10,10,0,0,0,1.5,1.3l1.5,1.4,1.3,1.2Zm20.5.7H28.7V19.1h2.9ZM9.7,36.3c.4-.8.7-1.8,1.2-2.8l1.2-3.3c.4-1.1.8-2.2,1.1-3.2l.8-2.6h0l-1.7-.5-2.1-.7a23.8,23.8,0,0,1-.8,2.6c-.3,1-.7,2-1.1,3.1L7.1,32.1c-.5,1-.8,1.9-1.1,2.6H6ZM20,29.4H17.6V23.2H20Zm33.3,7.2V6.1l-4.5-.2v7.7H41.7v4.5h7.1V26l-2.2,1.1-2.3,1-2.3,1-2,.7h0l1.3,4.6,1.8-.8,2-.9,2-1,1.7-1h0v5.9Zm9.5-.3h4.3a4,4,0,0,0,2.2-.9,4.5,4.5,0,0,0,1.1-2.5c.1-.5.1-1,.2-1.6s.1-1.1.2-1.7a9.1,9.1,0,0,0,.1-1.7h0l-4.3-1.5a6.1,6.1,0,0,1-.1,1.4c0,.4-.1.9-.1,1.3s-.1,1-.1,1.5a1.6,1.6,0,0,1-.5,1.1,1.3,1.3,0,0,1-.9.4H61.8a.7.7,0,0,1-.7-.5,3.1,3.1,0,0,1-.2-1.1h0V19.7a35.8,35.8,0,0,0,5.2-2.5l4-2.6h0l-2.4-3.9L64.6,13c-1.2.7-2.4,1.5-3.7,2.1h0V6.2l-4.5-.3V32.3a3.6,3.6,0,0,0,3.4,3.9h3Zm38.5-.1V18H91l3.6-1.5a33.7,33.7,0,0,0,3.2-1.9h0l-1.8-3c.6.4,1.1.9,1.8,1.3l1.8,1.4,1.6,1.3,1.3,1.1h0l2.2-3.7-1.9-1.5-2.4-1.7L97.9,8,96,6.7h0L93.6,9.9a2.4,2.4,0,0,1,.9.6l1.1.8-2,1.1a12.4,12.4,0,0,1-2,1h0V6l-4.5-.2v8.5h2.6a60.7,60.7,0,0,1-7.2,2.4c-2.6.7-5.5,1.4-8.7,2h0l1.1,4.1,1.9-.5,1.9-.4h0V36.2ZM76.8,17.4l2.3-1.7,2.3-1.9,2.3-2L85.6,10h0L82.8,7A14.9,14.9,0,0,1,81,8.7l-2.1,1.9-2.2,1.8L74.4,14h0Zm20.1,5.7H83.1V21.4H96.9Zm0,4.9H83.1V26.3H96.9Zm0,4.9H83.1V31.2H96.9Zm19.3,3.8V21.9l.6,1,.6,1.1h0l2.9-2.6h6.4V23h-7.3V34.7h3.8V26.9h3.5v9.7h3.9V26.9h3.6v2.5a1.7,1.7,0,0,1-.3,1.2c-.1.2-.5.4-1.1.4h0l-1.4.2,1.1,3.7,1.6-.2,1.9-.3a3.5,3.5,0,0,0,1.2-.7,2.3,2.3,0,0,0,.6-1.2,9.7,9.7,0,0,0,.1-1.8h0V23h-7.3V21.3H137V8.3h-7.2l.8-2.5L126,5.6l-.8,2.7h-5V21.2l-1.4-1.9-1.5-2h0l-1.1,1V15.4h3.1V11.5h-3.1V6.3l-3.9-.2v5.4h-3.4v3.9h3c-.3.9-.7,1.9-1.1,2.8a23.9,23.9,0,0,1-1.3,2.8,21,21,0,0,1-1.3,2.6,11.7,11.7,0,0,1-1.2,2h0l2.7,3a26,26,0,0,0,1.3-2.4c.4-.9.9-1.7,1.3-2.6h0V36.7Zm16.7-23.6h-8.6V11.7h8.6Zm0,4.7h-8.6V16.5h8.6Zm31.5-2.9v-2h7.4V8.8h-7.4V5.9l-4.1-.2V8.8h-5.8V5.9l-4.1-.2V8.8h-7.2v4.1h7.2v1.7h4.1V12.9h5.8v2ZM151.6,36.8V26.7l1.4,3.9,2.2-1,2-1h0v2.9c0,1.7.4,3,1.1,3.6a5.5,5.5,0,0,0,3.4,1.2,45.1,45.1,0,0,0,5.2,0l2.4-.3a5.2,5.2,0,0,0,1.5-.7,4.2,4.2,0,0,0,.9-1.4c.2-.6.4-1.4.6-2.3s.1-.8.2-1.3a7.6,7.6,0,0,0,.1-1.4h0l-4.1-1.3a5.3,5.3,0,0,1-.1,1.3,4.9,4.9,0,0,1-.1,1.2,3,3,0,0,1-.2,1,1,1,0,0,1-.4.5.9.9,0,0,1-.7.3l-1.1.2a12.2,12.2,0,0,1-2.7,0h-.8l-.5-.3c-.2-.2-.2-.4-.3-.6v-.9h0V26.3c1.9-1.1,3.6-2.2,5.3-3.4a57.4,57.4,0,0,0,4.7-3.5h0l-2.5-3.6c-1.1,1-2.3,1.9-3.6,2.9s-2.6,1.7-3.9,2.6h0V15.8l-4.4-.2v8.1a24.4,24.4,0,0,1-2.8,1.4l-2.8,1.3h0V20.2l1.1-1.7,1-1.8h0l-3.7-2a18.2,18.2,0,0,1-1.9,3.1,18.9,18.9,0,0,1-2,2.7l-2.2,2.4-2.5,2.3h0l2.1,4.1,2-1.9,1.8-1.9h0V36.8Zm32.9-.4V24.3l1.2,1.5.9,1.3h0l2-2.5v2.9h6.5v8.9h4V27.5h6.5V11.1h-6.5V6l-4-.2v5.3h-6.5V23.6a14,14,0,0,0-1.6-2l-1.5-1.7h0l-1,.8v-2h3.3V14.5h-3.3V11.1l2-.5,1.7-.4h0l-.6-4-2.7.6-2.9.6-2.8.5-2.6.4h0l.4,4,1.7-.2,1.8-.3h0v2.7h-3.8v4.2h3.6a41.6,41.6,0,0,1-2.4,4.7c-.9,1.6-1.9,3-2.8,4.3h0l2.6,3.1,1.5-2.2,1.3-2.4h0V36.4Zm10.6-13.1h-2.6V15.2h2.6Zm6.5,0h-2.5V15.2h2.5ZM218,36.5V21.8l2,2.5h0l2.1-2.1V32.4h-2.5v3.5h21.3V32.4h-2.3V13.3h-6.4V11.6h7.3V8h-7.3V6.1l-3.9-.2V8h-7.1v3.6h7.1v1.7h-6.2V21l-1.6-1.7-1.4-1.5h0L218,19V15.5h2.7V11.3H218v-5l-3.9-.2v5.2h-3.4v4.2h3c-.3.9-.6,1.9-1,2.8a23.9,23.9,0,0,1-1.3,2.8l-1.2,2.5-1.3,2.1h0l2.5,3.6a42.5,42.5,0,0,0,2.7-5.2h0V36.5Zm16.7-18.2h-8.8V16.8h8.8Zm0,4.6h-8.8V21.4h8.8Zm0,4.6h-8.8V26h8.8Zm0,4.9h-8.8V30.6h8.8ZM252,36.5V13.6c.4-.8.7-1.6,1-2.3s.5-1.5.8-2.2h0v3.6h20.6V8.6h-8.2l-.6-2.8-4.4.2.6,2.6h-7.9a14.6,14.6,0,0,0,.7-1.9h0l-3.8-1.2L249.6,9c-.5,1.3-1,2.6-1.6,3.9a38.4,38.4,0,0,1-2.1,4,35.1,35.1,0,0,1-2.7,4h0l3,3.2.9-1.3.8-1.3h0v15ZM272.6,18V14.3H255.4V18Zm0,5.2V19.5H255.4v3.7Zm0,12.7v-11H255.4v11Zm-4.4-4h-8.5V28.7h8.5Zm25.8-.2,3.2-2.6a14.5,14.5,0,0,0-1.2-1.9l-1.5-1.9h10.2V7.9H293.9l.3-1.2c.1-.3.1-.7.2-1h0l-4.6-.4a10.4,10.4,0,0,0-.3,1.2l-.3,1.4h-7.8V25.3h10.8l-1.8,1.4,1,1.1,1,1.3.9,1.4a7.5,7.5,0,0,1,.7,1.2Zm6.5-18.9H285.6V11.3h14.9Zm0,4.6H285.6V15.8h14.9Zm0,4.5H285.6V20.4h14.9Zm5,13.5,3.4-2.4-1-1.8-1.3-2a12.7,12.7,0,0,0-1.3-1.9l-1.2-1.7h0l-3.3,2.2,1.1,1.4,1.3,2a23.9,23.9,0,0,1,1.3,2.1l1,2.1Zm-24.7.4c.3-.6.7-1.1,1-1.8a21.2,21.2,0,0,0,1.1-2.1,20.4,20.4,0,0,0,.9-2.2c.3-.8.6-1.6.8-2.3h0L281,26.1c-.2.6-.4,1.2-.7,1.9l-1,2.1a19.8,19.8,0,0,1-1.1,2l-1,1.7h0Zm8.7.6c2.3.1,4.7.1,7.1,0l2-.2a3,3,0,0,0,1.4-.6,2.4,2.4,0,0,0,.9-1.1,7.8,7.8,0,0,0,.5-1.8c0-.5.1-1,.1-1.6s.1-1.1.2-1.4h0L298,28.3c-.1.4-.1.9-.2,1.4a6.1,6.1,0,0,1-.2,1.5,1.4,1.4,0,0,1-.2.7c0,.2-.1.3-.3.4l-.5.2h-1a33.8,33.8,0,0,1-4.5,0,2.4,2.4,0,0,1-1.3-.4c-.3-.2-.4-.6-.4-1.2h0V26.5l-4.2-.2v5.6a12.7,12.7,0,0,0,.2,2.2,4,4,0,0,0,.7,1.3,3.1,3.1,0,0,0,1.4.7A5.6,5.6,0,0,0,289.5,36.4Zm28.2-21.9,3.3-2.8-1-1.4-1.1-1.6-1.2-1.5L316.6,6h0l-3.2,2.2,1.1,1.4,1.2,1.7a17.4,17.4,0,0,1,1.1,1.8l.9,1.4Zm5.1,22.6a23.3,23.3,0,0,0,1.4-3.3,26.1,26.1,0,0,0,.8-3.5c.2-1.3.3-2.7.4-4.3V20.5h0V10.9h12V31.7a1.6,1.6,0,0,1-.3,1.1,2.1,2.1,0,0,1-1.3.3h0l-2.2.3,1.3,3.4,2.2-.2a6.6,6.6,0,0,0,2.1-.3l1.3-.7a3.1,3.1,0,0,0,.6-1.3,6.2,6.2,0,0,0,.2-2.1h0V7H321.7V18.9c0,2.1,0,3.8-.1,5.3a21.7,21.7,0,0,1-.3,3.8h0L320,25.9l-.4.5-.5.6h0V15.5h-6.6v4.2h2.6V30.6a2.4,2.4,0,0,1-.5,1h0l2.6,2.9a2.1,2.1,0,0,1,.4-.6,1,1,0,0,0,.4-.5l1.5-1.7,1.4-1.5a22.5,22.5,0,0,1-.8,2.4L318.9,35h0ZM336.7,22V18.4h-3.6V16.6h3.2V13.1h-3.2V11.2h-3.6v2h-3.1v3.5h3.1v1.8h-3.3V22ZM336,32.4V23.2h-9.5v9.2Zm-3.5-3.1h-2.6V26.5h2.6Zm19.4,8,6.3-1.6a42.3,42.3,0,0,0,5.1-1.9,53,53,0,0,0,5.2,1.7c1.9.5,4.1.9,6.7,1.4h0l1.3-3.9-4.8-.7-3.9-.8,3-2.1,2.5-2.3h0V23.7H353.4V27h3.8l-1.9,1.8,1.8,1.4,1.7,1.2-3.7,1-4.3.8a24.1,24.1,0,0,0,.8-2.5l.6-2.8.3-3.4c.1-1.2.1-2.6.1-4.1h0V17.9h3.9v4.7H371V17.9h4.9V14.3H371V12.7l-4.2-.2v1.8h-6.2V12.7l-4.1-.2v1.8h-3.9V12.2H376V8.4H364.9l-.6-2.8h-4.6l.6,2.7H348.5V19.1c0,2.1-.1,3.9-.2,5.3a34.2,34.2,0,0,1-.5,3.9,29.9,29.9,0,0,1-1,3.2,35.9,35.9,0,0,1-1.7,3.4h0l3.8,2.2c.3-.6.6-1.1.8-1.6s.5-1,.8-1.6h0Zm14.9-18h-6.2V17.9h6.2Zm-3.7,10.5-2.2-1.3a9.5,9.5,0,0,1-2-1.5h8.6a10.1,10.1,0,0,1-2,1.4Zm34.5,6.5V26.5h12.9V22.1H397.6V10.9h11V6.6H382.2v4.3h11V22.1H380.3v4.4h12.9v9.8Zm5.1-14.5L404,20l1.5-2.2,1.4-2.2a21.9,21.9,0,0,0,1.1-1.9h0l-3.5-2.2a13.6,13.6,0,0,1-1.1,2c-.4.8-.9,1.5-1.4,2.3l-1.5,2.1-1.2,1.7h0Zm-14.6,0,3.4-2.5-1-1.8c-.5-.6-.9-1.3-1.4-2l-1.5-2.1a14.3,14.3,0,0,0-1.5-1.8h0L382.8,14l1.5,1.9c.5.7,1,1.4,1.4,2.1l1.4,2.1,1,1.7Zm53.1-.9L444,18l-2.1-2.4-2.5-2.7-2.5-2.5-2.1-2h0L432,10.9l1.7,1.6,2,2.2H423.2a11.4,11.4,0,0,0,1.4-1.2l1.8-2,2-2.4,1.9-2.4h0l-4.1-1.8-1.8,2.5a32.7,32.7,0,0,1-2.4,2.7,26.6,26.6,0,0,1-2.3,2.4,10.1,10.1,0,0,1-1.8,1.5,2.1,2.1,0,0,1-1,.6l-1.7.5h0l1.1,4.3h1.4l2.7-.2,3.7-.2h5.2l3.5-.2h6.6l1.8,2.1ZM441.1,36V21.7H417.7V36Zm-4.4-4.2H422.1V25.9h14.6Z" transform="translate(-5.5 -5.3)" style="fill: url(#ab23dd7a-06e2-4815-b923-9b0f35fbb331)"/>
  </g>
</svg>
