<?xml version="1.0" encoding="UTF-8"?>
<svg width="19px" height="17px" viewBox="0 0 19 17" version="1.1" xmlns="http://www.w3.org/2000/svg" xmlns:xlink="http://www.w3.org/1999/xlink">
    <!-- Generator: Sketch 64 (93537) - https://sketch.com -->
    <title>编组</title>
    <desc>Created with Sketch.</desc>
    <g id="页面-1" stroke="none" stroke-width="1" fill="none" fill-rule="evenodd">
        <g id="画板" transform="translate(-921.000000, -265.000000)" fill-rule="nonzero">
            <g id="菜单备份" transform="translate(455.000000, 251.000000)">
                <g id="编组-5" transform="translate(440.000000, 0.000000)">
                    <g id="编组" transform="translate(26.000000, 14.000000)">
                        <path d="M10.6875,14 L10.6875,17 L3.56249999,17 L3.56249999,9.71428571 L10.6875,9.71428571 L10.6875,12.1428571 L19,12.1428571 L19,14 L10.6875,14 Z M8.3125,12.1428571 L5.93750001,12.1428571 L5.93750001,14.5714286 L8.3125,14.5714286 L8.3125,12.1428571 Z M2.375,14.1428571 L0,14.1428571 L0,12.1428571 L2.375,12.1428571 L2.375,14.1428571 L2.375,14.1428571 Z" id="形状" fill="#36A065"></path>
                        <path d="M10.6875,4.28571429 L10.6875,7.28571429 L3.56249999,7.28571429 L3.56249999,-1.77635684e-14 L10.6875,-1.77635684e-14 L10.6875,2.42857142 L19,2.42857142 L19,4.28571429 L10.6875,4.28571429 Z M8.3125,2.42857142 L5.93750001,2.42857142 L5.93750001,4.85714286 L8.3125,4.85714286 L8.3125,2.42857142 Z M2.375,4.42857142 L0,4.42857142 L0,2.42857142 L2.375,2.42857142 L2.375,4.42857142 L2.375,4.42857142 Z" id="形状" fill="#FFCE45" transform="translate(9.500000, 3.642857) scale(-1, 1) translate(-9.500000, -3.642857) "></path>
                    </g>
                </g>
            </g>
        </g>
    </g>
</svg>