<?xml version="1.0" encoding="UTF-8"?>
<svg width="16px" height="18px" viewBox="0 0 16 18" version="1.1" xmlns="http://www.w3.org/2000/svg" xmlns:xlink="http://www.w3.org/1999/xlink">
    <!-- Generator: Sketch 64 (93537) - https://sketch.com -->
    <title>编组</title>
    <desc>Created with Sketch.</desc>
    <g id="页面-1" stroke="none" stroke-width="1" fill="none" fill-rule="evenodd">
        <g id="画板" transform="translate(-812.000000, -137.000000)" fill="#FFFFFF" fill-rule="nonzero">
            <g id="菜单" transform="translate(455.000000, 124.000000)">
                <g id="编组-8" transform="translate(330.000000, 0.000000)">
                    <g id="编组" transform="translate(27.000000, 13.000000)">
                        <path d="M14.8029925,1.63636363 L12.5286783,1.63636363 L12.5286783,1.18636362 C12.5286783,0.531818176 12.0099751,0 11.3715711,0 L4.54862843,0 C3.91022444,0 3.39152119,0.531818176 3.39152121,1.18636362 L3.39152121,1.63636363 L1.15710724,1.63636363 C0.518703254,1.63636363 0,2.16818181 0,2.82272727 L0,16.8545455 C0,17.4681818 0.518703254,18 1.15710724,18 L14.8428928,18 C15.4812967,18 16,17.4681818 16,16.8136364 L16,2.82272727 C15.9600998,2.16818181 15.4413965,1.63636363 14.8029925,1.63636363 Z M4.54862843,1.5 L11.3715711,1.5 L11.3715711,3.5 L4.54862843,3.5 L4.54862843,1.5 Z M14.5,16 L1.5,16 L1.5,3.82272727 L3.43142145,3.82272727 L3.43142145,4.5 C3.84990485,4.5 4.23560726,4.5 4.58852869,4.5 L11.4114713,4.5 C11.5802108,4.5 11.9659132,4.5 12.5685785,4.5 L12.5685785,3.82272727 L14.5,3.82272727 L14.5,16 Z" id="形状"></path>
                        <path d="M10.1352941,8.14068903 L9.78235294,8.52788513 L8.54705882,9.88307144 L6.92352942,11.6641735 L5.86470589,10.5025852 C5.65294118,10.2702675 5.33529412,10.2702675 5.15882353,10.5025852 C4.94705882,10.7349029 4.94705882,11.0833793 5.15882353,11.2769774 L6.57058823,12.8257618 C6.78235293,13.0580794 7.09999999,13.0580794 7.27647059,12.8257618 L10.8411765,8.95380082 C11.0529412,8.72148316 11.0529412,8.37300668 10.8411765,8.17940865 C10.6647059,7.94709099 10.3470588,7.94709099 10.1352941,8.14068903 L10.1352941,8.14068903 Z" id="路径"></path>
                    </g>
                </g>
            </g>
        </g>
    </g>
</svg>