<?xml version="1.0" encoding="UTF-8"?>
<svg width="22px" height="20px" viewBox="0 0 22 20" version="1.1" xmlns="http://www.w3.org/2000/svg" xmlns:xlink="http://www.w3.org/1999/xlink">
    <!-- Generator: Sketch 64 (93537) - https://sketch.com -->
    <title>首页</title>
    <desc>Created with Sketch.</desc>
    <g id="页面-1" stroke="none" stroke-width="1" fill="none" fill-rule="evenodd">
        <g id="画板" transform="translate(-479.000000, -265.000000)" fill-rule="nonzero">
            <g id="菜单备份" transform="translate(455.000000, 251.000000)">
                <g id="编组-2">
                    <g id="首页" transform="translate(24.000000, 13.000000)">
                        <rect id="矩形" fill="#000000" opacity="0" x="0" y="0" width="22" height="22"></rect>
                        <path d="M16.9546721,20.4827586 L13.4309335,20.4827586 C12.5388478,20.4827586 11.8697836,19.7364304 11.8697836,18.8144955 L11.8697836,15.2145594 L10.0856122,15.2145594 L10.0856122,18.8144955 C10.0856122,19.7803321 9.41654788,20.4827586 8.52446218,20.4827586 L5.04532794,20.4827586 C4.15324224,20.4827586 3.43957368,19.7364304 3.43957368,18.8144955 L3.43957368,11.7024266 L2.59209226,11.7024266 C1.78921513,11.7024266 1.07554657,11.26341 0.852525147,10.5609834 C0.629503722,9.94636015 0.807920862,9.28783525 1.34317228,8.80491699 L9.90719502,1.91235632 C10.4870507,1.3855364 11.468345,1.3855364 12.092805,1.91235632 L20.6568277,8.80491699 C21.1920791,9.24393359 21.3704963,9.94636015 21.1474749,10.5609834 C20.8798491,11.26341 20.1661806,11.7024266 19.3633035,11.7024266 L18.5604263,11.7024266 L18.5604263,18.8144955 C18.5604263,19.7364304 17.8467578,20.4827586 16.9546721,20.4827586 Z M13.653955,18.7266922 L16.7762549,18.7266922 L16.7762549,11.6146232 C16.7762549,10.6926884 17.579132,9.94636015 18.5604263,9.94636015 L19.2294906,9.94636015 L10.9776979,3.31720945 L2.72590512,9.94636015 L3.43957368,9.94636015 C4.37626367,9.94636015 5.13453651,10.6926884 5.13453651,11.6146232 L5.13453651,18.7266922 L8.25683647,18.7266922 L8.25683647,15.1267561 C8.25683647,14.2487229 9.10431788,13.458493 10.0410079,13.458493 L11.8697836,13.458493 C12.8064735,13.458493 13.653955,14.2487229 13.653955,15.1267561 L13.653955,18.7266922 Z" id="形状" fill="#36A065"></path>
                        <path d="M12.7701149,18.9655172 C12.2833333,18.9655172 11.8850575,18.5753695 11.8850575,18.0985222 L11.8850575,14.6305419 L10.1149425,14.6305419 L10.1149425,18.0985222 C10.1149425,18.5753695 9.71666667,18.9655172 9.22988506,18.9655172 C8.74310345,18.9655172 8.34482759,18.5753695 8.34482759,18.0985222 L8.34482759,14.5438424 C8.34482759,13.6768473 9.18563218,12.8965517 10.1149425,12.8965517 L11.8850575,12.8965517 C12.8143678,12.8965517 13.6551724,13.6768473 13.6551724,14.5438424 L13.6551724,18.0985222 C13.6551724,18.5753695 13.2568966,18.9655172 12.7701149,18.9655172 L12.7701149,18.9655172 Z" id="路径" fill="#36A065"></path>
                        <path d="M12.7701149,9.86206897 L9.22988506,9.86206897 C8.74310345,9.86206897 8.34482759,9.52068966 8.34482759,9.10344828 C8.34482759,8.6862069 8.74310345,8.34482759 9.22988506,8.34482759 L12.7701149,8.34482759 C13.2568966,8.34482759 13.6551724,8.6862069 13.6551724,9.10344828 C13.6551724,9.52068966 13.2568966,9.86206897 12.7701149,9.86206897 Z" id="路径" fill="#FFC525"></path>
                    </g>
                </g>
            </g>
        </g>
    </g>
</svg>