<?xml version="1.0" encoding="UTF-8"?>
<svg width="16px" height="20px" viewBox="0 0 16 20" version="1.1" xmlns="http://www.w3.org/2000/svg" xmlns:xlink="http://www.w3.org/1999/xlink">
    <!-- Generator: Sketch 64 (93537) - https://sketch.com -->
    <title>位置</title>
    <desc>Created with Sketch.</desc>
    <g id="页面-1" stroke="none" stroke-width="1" fill="none" fill-rule="evenodd">
        <g id="2-任务视图" transform="translate(-140.000000, -296.000000)" fill-rule="nonzero">
            <g id="编组-12" transform="translate(138.000000, 294.000000)">
                <g id="位置" transform="translate(0.000000, 2.000000)">
                    <rect id="矩形" fill="#000000" opacity="0" x="0" y="0" width="20" height="20"></rect>
                    <path d="M17.43125,5.55416667 C17.0291667,4.5625 16.4375,3.67083333 15.675,2.90833333 C14.9125,2.14583333 14.0229167,1.55416667 13.0291667,1.15208333 C12.0708333,0.764583333 11.0583333,0.566666667 10.0208333,0.566666667 C8.98333333,0.566666667 7.97083333,0.764583333 7.0125,1.15208333 C6.02083333,1.55416667 5.12916667,2.14583333 4.36666667,2.90833333 C3.60416667,3.67083333 3.0125,4.56041667 2.61041667,5.55416667 C2.22291667,6.5125 2.025,7.525 2.025,8.5625 C2.025,9.6 2.22291667,10.6125 2.61041667,11.5708333 C3.0125,12.5625 3.60416667,13.4541667 4.36666667,14.2166667 L7.51666667,17.3666667 L8.75416667,16.1291667 L5.60416667,12.9791667 C3.16875,10.54375 3.16875,6.58125 5.60416667,4.14583333 C6.78333333,2.96666667 8.35208333,2.31666667 10.0208333,2.31666667 C11.6895833,2.31666667 13.2583333,2.96666667 14.4375,4.14583333 C16.8729167,6.58125 16.8729167,10.54375 14.4375,12.9791667 L8.78333333,18.6333333 L10.0208333,19.8708333 L15.675,14.2166667 C16.4375,13.4541667 17.0291667,12.5645833 17.43125,11.5708333 C17.81875,10.6125 18.0166667,9.6 18.0166667,8.5625 C18.0166667,7.525 17.81875,6.5125 17.43125,5.55416667 L17.43125,5.55416667 Z" id="路径" fill="#36A065"></path>
                    <path d="M13.56875,8.24791667 C13.56875,6.26458333 11.95625,4.65208333 9.97291667,4.65208333 C7.98958333,4.65208333 6.37708333,6.26458333 6.37708333,8.24791667 C6.37708333,10.23125 7.98958333,11.84375 9.97291667,11.84375 C11.95625,11.8416667 13.56875,10.2291667 13.56875,8.24791667 Z M9.97291667,10.0916667 C8.95625,10.0916667 8.12708333,9.26458333 8.12708333,8.24583333 C8.12708333,7.22708333 8.95416667,6.4 9.97291667,6.4 C10.9916667,6.4 11.81875,7.22708333 11.81875,8.24583333 C11.81875,9.26458333 10.9916667,10.0916667 9.97291667,10.0916667 L9.97291667,10.0916667 Z" id="形状" fill="#36A065"></path>
                </g>
            </g>
        </g>
    </g>
</svg>