<?xml version="1.0" encoding="UTF-8"?>
<svg  version="1.1" xmlns="http://www.w3.org/2000/svg" xmlns:xlink="http://www.w3.org/1999/xlink">
    <!-- Generator: Sketch 64 (93537) - https://sketch.com -->
    <title>Group 45</title>
    <desc>Created with Sketch.</desc>
    <g id="页面-1" stroke="none" stroke-width="1" fill="none" fill-rule="evenodd">
        <g id="首页1备份" transform="translate(-359.000000, -26.000000)" fill-rule="nonzero">
            <g id="Group-84-Copy备份" transform="translate(0.000000, -1.000000)">
                <g id="Group-45" transform="translate(360.000000, 28.000000)">
                    <path d="M37.24,5.08 L38.66,3.64 C37.78,2.72 36.72,1.82 35.44,0.9 L34.04,2.24 C35.42,3.24 36.48,4.2 37.24,5.08 Z M44.54,9.66 L42.64,9.66 L42.64,6.3 L44.98,6.3 L44.98,4.4 L42.64,4.4 L42.64,1.16 L40.66,1.16 L40.66,4.4 L38.32,4.4 L38.32,6.3 L40.66,6.3 L40.66,9.66 L38.66,9.66 L38.66,17.9 L40.54,17.9 L40.54,16.82 L44.32,16.82 C44.16,17.1 44,17.4 43.82,17.68 L45.3,19.02 C46.46,17.34 47.14,15.22 47.36,12.68 L49.74,12.68 L49.74,16.4 C49.74,16.98 49.5,17.28 49.06,17.28 C48.64,17.28 48.2,17.24 47.72,17.2 L48.24,19.02 L49.64,19.02 C50.96,19.02 51.64,18.36 51.64,17.06 L51.64,1.16 L45.56,1.16 L45.56,11.18 C45.5230769,13.0076923 45.2305325,14.6138462 44.6823669,16.0141921 L44.54,16.359 L44.54,9.66 Z M49.74,6 L47.44,6 L47.44,3.04 L49.74,3.04 L49.74,6 Z M36.88,9.9 L38.32,8.48 C37.42,7.52 36.34,6.54 35.06,5.58 L33.64,6.92 C35.04,8 36.12,8.98 36.88,9.9 Z M49.74,10.84 L47.44,10.84 L47.44,7.82 L49.74,7.82 L49.74,10.84 Z M35.74,18.86 C36.7,16.62 37.6,14.22 38.4,11.68 L36.6,10.96 C35.82,13.36 34.9,15.72 33.86,18.02 L35.74,18.86 Z M42.68,15.06 L40.54,15.06 L40.54,11.42 L42.68,11.42 L42.68,15.06 Z M61.44,18.96 L61.44,0.62 L59.32,0.62 L59.32,5.96 L54.34,5.96 L54.34,7.94 L59.32,7.94 L59.32,13.78 C57.56,14.58 55.76,15.16 53.92,15.54 L54.44,17.62 C56.12,17.14 57.76,16.56 59.32,15.88 L59.32,18.96 L61.44,18.96 Z M69.5,18.76 C70.42,18.76 71.08,18.52 71.44,18.04 C71.78,17.54 72.02,16.12 72.14,13.8 L70.18,13.14 C70.14,14.98 70.04,16.06 69.9,16.38 C69.74,16.66 69.5,16.82 69.14,16.82 L66.88,16.82 C66.48,16.82 66.28,16.58 66.28,16.1 L66.28,8.98 C68.08,8.38 69.98,7.5 72,6.32 L70.8,4.62 C69.38,5.6 67.88,6.4 66.28,7 L66.28,0.64 L64.18,0.64 L64.18,16.42 C64.18,17.98 64.92,18.76 66.42,18.76 L69.5,18.76 Z M83.78,5.62 L83.78,0.52 L81.72,0.52 L81.72,5.62 L83.78,5.62 Z M79.28,19.08 L79.28,18.32 L87.86,18.32 L87.86,19.04 L89.9,19.04 L89.9,8.08 L83.18,8.08 C85.46,7.24 87.46,6.26 89.14,5.12 C89.74,5.66 90.26,6.2 90.74,6.72 L92.2,5.24 C90.8,3.86 89.08,2.46 87.06,1.04 L85.66,2.4 C86.38,2.9 87.04,3.4 87.68,3.9 C84.48,5.92 79.86,7.4 73.86,8.34 L74.72,10.22 L77.26,9.74 L77.26,19.08 L79.28,19.08 Z M75.72,6.76 C77.44,5.68 78.9,4.42 80.06,2.98 L78.6,1.68 C77.5,3.02 76.14,4.2 74.5,5.2 L75.72,6.76 Z M87.86,10.92 L79.28,10.92 L79.28,9.82 L87.86,9.82 L87.86,10.92 Z M87.86,13.64 L79.28,13.64 L79.28,12.56 L87.86,12.56 L87.86,13.64 Z M87.86,16.48 L79.28,16.48 L79.28,15.28 L87.86,15.28 L87.86,16.48 Z M107.12,19.06 L107.12,12.74 L109.66,12.74 L109.66,15.26 C109.66,15.74 109.46,15.98 109.1,15.98 L107.68,15.88 L108.2,17.82 L109.76,17.82 C111.02,17.82 111.66,17.12 111.66,15.72 L111.66,10.84 L107.12,10.84 L107.12,9.68 L111.1,9.68 L111.1,2.16 L106.82,2.16 C107.02,1.72 107.2,1.24 107.34,0.74 L105.2,0.44 C105.1,1.02 104.94,1.6 104.74,2.16 L101.3,2.16 L101.3,9.68 L105.1,9.68 L105.1,10.84 L100.7,10.84 L100.7,18.06 L102.64,18.06 L102.64,12.74 L105.1,12.74 L105.1,19.06 L107.12,19.06 Z M98.6,19.02 L98.6,9.5 C98.98,10.14 99.42,10.9 99.9,11.8 L101.04,10.02 C100.22,8.96 99.4,8 98.6,7.12 L98.6,6.28 L100.7,6.28 L100.7,4.26 L98.6,4.26 L98.6,0.58 L96.58,0.58 L96.58,4.26 L94.06,4.26 L94.06,6.28 L96.5,6.28 C95.9,8.44 94.92,10.38 93.56,12.06 L94.48,14.36 C95.3,13.02 96,11.56 96.58,10 L96.58,19.02 L98.6,19.02 Z M109.12,5.12 L103.3,5.12 L103.3,3.88 L109.12,3.88 L109.12,5.12 Z M109.12,7.96 L103.3,7.96 L103.3,6.76 L109.12,6.76 L109.12,7.96 Z M120.44,5.62 L120.44,4.14 L125.58,4.14 L125.58,5.62 L127.64,5.62 L127.64,4.14 L131.72,4.14 L131.72,2.18 L127.64,2.18 L127.64,0.52 L125.58,0.52 L125.58,2.18 L120.44,2.18 L120.44,0.52 L118.38,0.52 L118.38,2.18 L114.3,2.18 L114.3,4.14 L118.38,4.14 L118.38,5.62 L120.44,5.62 Z M119.1,19.14 L119.1,9.48 C119.7,8.6 120.2,7.66 120.6,6.7 L118.72,5.8 C117.66,8.28 116.04,10.46 113.84,12.3 L114.48,14.38 C115.38,13.66 116.22,12.9 116.98,12.1 L116.98,19.14 L119.1,19.14 Z M129.22,18.78 C130.14,18.78 130.8,18.58 131.24,18.22 C131.7,17.82 132.04,16.58 132.24,14.5 L130.26,13.86 C130.18,15.32 130.02,16.2 129.78,16.5 C129.58,16.78 129.26,16.92 128.82,16.92 L126.08,16.92 C125.64,16.92 125.42,16.64 125.42,16.1 L125.42,12.9 C127.82,11.56 129.9,10 131.68,8.22 L130.22,6.74 C128.96,8.12 127.36,9.4 125.42,10.58 L125.42,6.14 L123.32,6.14 L123.32,11.72 C122.32,12.2 121.22,12.68 120.06,13.14 L121.22,14.9 C121.92,14.62 122.62,14.3 123.32,13.98 L123.32,16.56 C123.32,18.04 124.04,18.78 125.48,18.78 L129.22,18.78 Z M138.84,19.08 L138.84,10.48 C139.3,11.16 139.84,12 140.48,13.02 L141.66,11.24 C140.7,10.26 139.76,9.36 138.84,8.56 L138.84,7.84 L141.2,7.84 L141.2,5.82 L138.84,5.82 L138.84,3.1 C139.68,2.94 140.48,2.74 141.24,2.54 L140.5,0.62 C138.6,1.22 136.44,1.6 134.04,1.8 L134.46,3.72 C135.26,3.64 136.04,3.54 136.8,3.44 L136.8,5.82 L133.94,5.82 L133.94,7.84 L136.56,7.84 C135.92,9.78 134.9,11.52 133.54,13.06 L134.42,15.26 C135.38,13.92 136.16,12.46 136.8,10.86 L136.8,19.08 L138.84,19.08 Z M147.8,19.1 L147.8,12.56 L149.62,12.56 L149.62,13.4 L151.66,13.4 L151.66,3.96 L147.8,3.96 L147.8,0.64 L145.7,0.64 L145.7,3.96 L141.94,3.96 L141.94,13.4 L143.94,13.4 L143.94,12.56 L145.7,12.56 L145.7,19.1 L147.8,19.1 Z M145.7,10.64 L143.94,10.64 L143.94,5.92 L145.7,5.92 L145.7,10.64 Z M149.62,10.64 L147.8,10.64 L147.8,5.92 L149.62,5.92 L149.62,10.64 Z M172.24,18.56 L172.24,16.62 L170.64,16.62 L170.64,5.34 L166.78,5.34 L166.96,4.04 L171.84,4.04 L171.84,2.12 L167.14,2.12 L167.26,0.72 L165.2,0.44 L165.08,2.12 L160.28,2.12 L160.28,4.04 L164.9,4.04 L164.72,5.34 L161.46,5.34 L161.46,16.62 L159.56,16.62 L159.56,18.56 L172.24,18.56 Z M158.3,19.04 L158.3,10.24 C158.62,10.84 158.96,11.54 159.36,12.36 L160.54,10.62 C159.78,9.54 159.04,8.56 158.3,7.66 L158.3,6.26 L160.1,6.26 L160.1,4.28 L158.3,4.28 L158.3,0.58 L156.26,0.58 L156.26,4.28 L154.06,4.28 L154.06,6.26 L156.22,6.26 C155.66,8.44 154.78,10.38 153.6,12.06 L154.5,14.36 C155.18,13.14 155.78,11.82 156.26,10.4 L156.26,19.04 L158.3,19.04 Z M168.6,8.32 L163.48,8.32 L163.48,7.18 L168.6,7.18 L168.6,8.32 Z M168.6,11.04 L163.48,11.04 L163.48,9.96 L168.6,9.96 L168.6,11.04 Z M168.6,13.78 L163.48,13.78 L163.48,12.68 L168.6,12.68 L168.6,13.78 Z M168.6,16.62 L163.48,16.62 L163.48,15.44 L168.6,15.44 L168.6,16.62 Z M177.82,19.12 L177.82,5.56 C178.54,4.2 179.12,2.78 179.56,1.28 L177.6,0.36 C176.72,3.44 175.36,6.12 173.56,8.4 L174.26,10.64 C174.78,10.04 175.28,9.44 175.76,8.8 L175.76,19.12 L177.82,19.12 Z M192.28,4.86 L192.28,2.9 L186.9,2.9 C186.7,2.18 186.4,1.38 186,0.52 L184,1.06 C184.3,1.66 184.58,2.26 184.84,2.9 L179.1,2.9 L179.1,4.86 L192.28,4.86 Z M190.6,7.78 L190.6,5.92 L180.9,5.92 L180.9,7.78 L190.6,7.78 Z M190.6,10.62 L190.6,8.74 L180.9,8.74 L180.9,10.62 L190.6,10.62 Z M182.48,19.08 L182.48,18.08 L189.02,18.08 L189.02,19.08 L191.04,19.08 L191.04,11.72 L180.44,11.72 L180.44,19.08 L182.48,19.08 Z M189.02,16.1 L182.48,16.1 L182.48,13.66 L189.02,13.66 L189.02,16.1 Z M209.54,12.1 L209.54,1.88 L203.3,1.88 C203.5,1.5 203.66,1.1 203.78,0.68 L201.58,0.38 C201.46,0.9 201.28,1.4 201.04,1.88 L196.62,1.88 L196.62,12.1 L209.54,12.1 Z M207.52,4.78 L198.64,4.78 L198.64,3.66 L207.52,3.66 L207.52,4.78 Z M207.52,7.54 L198.64,7.54 L198.64,6.42 L207.52,6.42 L207.52,7.54 Z M207.52,10.34 L198.64,10.34 L198.64,9.18 L207.52,9.18 L207.52,10.34 Z M203.84,16.04 L205.42,14.96 C204.9,14.22 204.16,13.36 203.24,12.36 L201.7,13.32 C202.6,14.32 203.32,15.24 203.84,16.04 Z M210.6,18 L212.28,16.84 C211.64,15.68 210.76,14.32 209.6,12.76 L207.96,13.78 C209.08,15.34 209.96,16.74 210.6,18 Z M205.62,18.78 C206.42,18.78 207.02,18.62 207.42,18.32 C207.84,18 208.14,16.98 208.32,15.26 L206.32,14.6 C206.26,15.72 206.14,16.4 205.94,16.62 C205.78,16.82 205.54,16.94 205.22,16.94 L201.14,16.94 C200.74,16.94 200.56,16.72 200.56,16.32 L200.56,13.18 L198.44,13.18 L198.44,16.78 C198.44,18.1 199.14,18.78 200.54,18.78 L205.62,18.78 Z M195.56,18.44 C196.38,17.08 197.02,15.46 197.48,13.6 L195.52,13.2 C195.2,14.64 194.62,16.02 193.8,17.3 L195.56,18.44 Z M218.2,5.06 L219.62,3.62 C218.78,2.66 217.76,1.68 216.56,0.72 L215.1,2.14 C216.42,3.18 217.46,4.14 218.2,5.06 Z M220.5,19.1 C221.66,17.38 222.26,15.16 222.3,12.4 L222.3,3.06 L229.68,3.06 L229.68,16.18 C229.68,16.84 229.42,17.18 228.9,17.18 C228.38,17.18 227.8,17.14 227.2,17.08 L227.68,18.98 L229.5,18.98 C230.94,18.98 231.66,18.28 231.66,16.9 L231.66,1.18 L220.34,1.18 L220.34,12.54 C220.3,14.62 219.84,16.32 218.96,17.68 L220.5,19.1 Z M229.22,9.64 L229.22,7.92 L226.96,7.92 L226.96,6.56 L228.96,6.56 L228.96,4.92 L226.96,4.92 L226.96,3.58 L224.98,3.58 L224.98,4.92 L223,4.92 L223,6.56 L224.98,6.56 L224.98,7.92 L222.74,7.92 L222.74,9.64 L229.22,9.64 Z M216.58,18.14 C217.74,17.3 218.84,16.36 219.88,15.32 L219.36,13.26 C219,13.62 218.64,13.96 218.32,14.28 L218.32,6.48 L213.72,6.48 L213.72,8.48 L216.32,8.48 L216.32,15.24 C216.32,15.66 216.14,16 215.78,16.28 L216.58,18.14 Z M228.68,16.08 L228.68,10.62 L223.26,10.62 L223.26,16.08 L228.68,16.08 Z M226.92,14.4 L225.04,14.4 L225.04,12.3 L226.92,12.3 L226.92,14.4 Z M235.24,19.04 C236.6,16.36 237.3,12.82 237.38,8.42 L237.38,7.48 L240.22,7.48 L240.22,10.56 L248.72,10.56 L248.72,7.48 L251.68,7.48 L251.68,5.56 L248.72,5.56 L248.72,4.3 L246.7,4.3 L246.7,5.56 L242.26,5.56 L242.26,4.32 L240.22,4.32 L240.22,5.56 L237.38,5.56 L237.38,3.88 L251.68,3.88 L251.68,1.92 L245,1.92 C244.8,1.36 244.58,0.86 244.38,0.42 L242.16,0.78 C242.4,1.14 242.62,1.52 242.82,1.92 L235.3,1.92 L235.3,8.42 C235.26,12.34 234.7,15.42 233.66,17.62 L235.24,19.04 Z M246.7,8.84 L242.26,8.84 L242.26,7.48 L246.7,7.48 L246.7,8.84 Z M251.32,19.24 L252.22,17.4 C250.08,17.12 248.18,16.7 246.54,16.1 C247.9,15.24 249.06,14.24 250.04,13.08 L250.04,11.54 L238.12,11.54 L238.12,13.32 L239.5,13.32 C240.3,14.32 241.28,15.22 242.44,16.02 C240.74,16.64 238.82,17.1 236.68,17.38 L237.58,19.24 C240.2,18.8 242.52,18.12 244.52,17.2 C246.4,18.12 248.68,18.8 251.32,19.24 Z M244.38,15.16 C243.38,14.64 242.52,14.02 241.78,13.32 L247.2,13.32 C246.36,14 245.42,14.62 244.38,15.16 Z M263.98,19.06 L263.98,12.22 L271.94,12.22 L271.94,10.2 L263.98,10.2 L263.98,3.32 L271.2,3.32 L271.2,1.28 L254.86,1.28 L254.86,3.32 L261.86,3.32 L261.86,10.2 L254.06,10.2 L254.06,12.22 L261.86,12.22 L261.86,19.06 L263.98,19.06 Z M268.08,9.42 C268.98,7.98 269.72,6.48 270.28,4.94 L268.38,4.04 C267.84,5.5 267.12,6.98 266.2,8.46 L268.08,9.42 Z M257.92,9.54 L259.88,8.58 C259.2,6.94 258.52,5.46 257.8,4.12 L255.86,5.06 C256.58,6.38 257.28,7.88 257.92,9.54 Z M290.1,10.28 L292.14,9.28 C290.7,6.86 289.2,4.66 287.6,2.66 L285.7,3.56 C286.32,4.34 286.94,5.18 287.54,6.06 C284.46,6.34 281.3,6.56 278.06,6.72 C279.7,5.2 281.28,3.36 282.82,1.24 L280.66,0.48 C277.94,4.46 275.86,6.56 274.46,6.78 L274.84,8.76 C279.94,8.58 284.58,8.3 288.74,7.92 C289.2,8.68 289.66,9.46 290.1,10.28 Z M278.22,19.12 L278.22,18.36 L287.78,18.36 L287.78,19.12 L289.9,19.12 L289.9,10.54 L276.1,10.54 L276.1,19.12 L278.22,19.12 Z M287.78,16.36 L278.22,16.36 L278.22,12.54 L287.78,12.54 L287.78,16.36 Z" id="湖北省棉花种植信息调度平台" fill-opacity="0.85" fill="#413F3F"></path>
                    <g id="编组" fill="#099D5F">
                        <path d="M6.63874954,20.7925796 C4.75313311,20.7925796 2.71344803,19.9762457 1.46480203,18.2263017 C0.533613838,16.965781 0.0212957653,15.4449121 0,13.8778862 C0.0160967205,12.3509968 0.609376038,11.0931527 1.67175994,10.3343071 C1.9791272,10.1156825 2.31797006,9.94509798 2.67665552,9.82840999 C2.0317242,8.15095321 2.34738732,6.25566934 3.50118979,4.87779507 C4.65499227,3.4999208 6.46537074,2.85627964 8.23002583,3.19655904 C9.26239057,1.11302111 11.4482344,-0.143436287 13.7682346,0.0131096134 C16.0882347,0.169655514 18.0854694,1.70837316 18.8285698,3.91171357 L18.9182516,3.91171357 C21.677647,3.91678251 23.9126047,6.15379726 23.9151351,8.91319616 C23.9156794,9.04602713 23.9095395,9.17880136 23.8967389,9.31101523 C25.7731572,10.6907346 26.4078281,13.5536522 25.3983334,16.2992937 C24.8073536,17.9250629 23.3977404,19.3185795 21.6316996,20.0084391 C19.9822097,20.7060361 18.1122728,20.6599579 16.4991437,19.8819649 L17.0165385,18.858673 C18.3383585,19.4901927 19.8679057,19.5228611 21.2154843,18.9483548 C22.6825858,18.3619741 23.8461492,17.2237056 24.33365,15.9014746 C25.1844769,13.5697489 24.6049948,11.0609592 22.9953222,10.0859576 L22.6618901,9.89049735 L22.7193784,9.508775 C22.9040786,8.39564674 22.5874591,7.25779118 21.8543461,6.40005343 C21.1212331,5.54231568 20.0465626,5.05237036 18.9182516,5.06147968 C18.7691521,5.06240618 18.6202194,5.07161852 18.4721423,5.08907408 L17.9685448,5.14886191 L17.8489691,4.65446248 C17.3712986,2.7058575 15.6855814,1.29176022 13.6835979,1.16025842 C11.6816145,1.02875662 9.82540718,2.21019989 9.09694948,4.07957943 L8.90378877,4.57627838 L8.39329262,4.42220973 C8.03491718,4.31218607 7.66210173,4.25638002 7.28721763,4.2566434 C5.93065781,4.25395366 4.67626004,4.97701518 3.99867048,6.15223183 C3.32108093,7.32744847 3.32379477,8.77531738 4.00578514,9.94798566 L4.44269625,10.7045317 L3.57577261,10.8103102 C3.13119233,10.856779 2.70559999,11.0149917 2.33862427,11.2702167 C1.5843777,11.8083072 1.16126378,12.7396178 1.14976611,13.8916834 C1.17356254,15.2148927 1.61100082,16.4974553 2.40071165,17.5594373 C4.0103842,19.8152784 7.34930499,20.1717059 9.04176071,18.9644515 L9.70862506,19.9026607 C8.80077294,20.5070221 7.72907865,20.8176931 6.63874954,20.7925796 Z" id="路径" stroke="#099D5F"></path>
                        <path d="M14.8319828,16.9684575 C15.199908,15.1449285 14.9929501,11.8450997 13.0728407,10.4653804 C13.0728407,10.4653804 11.0423537,12.9074836 10.6974239,16.037147 C10.6813272,16.1751189 10.672129,16.3084918 10.6652305,16.4395651 C7.9057918,14.6206352 4.75773218,15.9451657 4.75773218,15.9451657 C4.75773218,15.9451657 7.72642827,19.0104422 9.10844713,20.0406326 C10.6583319,21.0823207 12.1300325,18.9460553 14.0961325,19.8359742 C14.7537988,20.1326139 15.770192,20.5833222 16.6003231,20.1234157 C18.2513872,19.2036028 19.8035715,16.6258272 20.8153657,15.67842 C19.0861175,15.540448 16.9199581,15.9773591 14.8319828,16.9684575 L14.8319828,16.9684575 Z" id="路径"></path>
                    </g>
                </g>
            </g>
        </g>
    </g>
</svg>