<?xml version="1.0" encoding="UTF-8"?>
<svg width="20px" height="21px" viewBox="0 0 20 21" version="1.1" xmlns="http://www.w3.org/2000/svg" xmlns:xlink="http://www.w3.org/1999/xlink">
    <!-- Generator: Sketch 64 (93537) - https://sketch.com -->
    <title>编组</title>
    <desc>Created with Sketch.</desc>
    <g id="页面-1" stroke="none" stroke-width="1" fill="none" fill-rule="evenodd">
        <g id="3-任务详情" transform="translate(-916.000000, -422.000000)" fill="#FA6400" fill-rule="nonzero">
            <g id="编组-16备份" transform="translate(120.000000, 273.000000)">
                <g id="编组-19" transform="translate(762.000000, 118.000000)">
                    <g id="编组-16" transform="translate(20.000000, 20.000000)">
                        <g id="编组-13">
                            <g id="编组" transform="translate(14.000000, 11.000000)">
                                <path d="M17.6923077,15.5691715 L1.47435897,15.5691715 L1.47435897,2.61928688 C1.47435897,2.00517344 1.96965144,1.50271699 2.57782452,1.50271699 L12.5113181,1.48875986 L12.5090144,0 L2.57552083,0.0139571237 C1.15645032,0.016283311 0,1.18402933 0,2.61928688 L0,18.2280036 C0,18.9235336 0.26953125,19.5795184 0.75791266,20.0703439 C1.24629407,20.5611694 1.89362981,20.8333333 2.58012821,20.8333333 L2.58243189,20.8333333 L16.5888421,20.8147238 C18.0102163,20.8123976 19.1666667,19.6446516 19.1666667,18.2093941 L19.1666667,7.39262319 L17.6923077,7.39262319 L17.6923077,15.5691715 Z M16.5888421,19.325964 L2.58243189,19.3445735 C2.28525641,19.3445735 2.0088141,19.2282641 1.79917869,19.0189073 C1.58954327,18.8072242 1.47435897,18.5280817 1.47435897,18.2280036 L1.47435897,17.0579314 L17.6923077,17.0579314 L17.6923077,18.2093941 C17.6923077,18.8258337 17.1970152,19.325964 16.5888421,19.325964 Z" id="形状"></path>
                                <path d="M19.5262139,1.7128873 L18.2845297,0.471852247 C17.6546899,-0.15765829 16.6267014,-0.15765829 15.9946122,0.474100499 L8.48602216,7.9787654 C8.39154619,8.07319198 8.32406335,8.19234933 8.29482079,8.32274794 L7.51876819,11.616437 C7.4625325,11.8592482 7.53451419,12.1133007 7.70996956,12.2909126 C7.84718466,12.4280559 8.02938831,12.5 8.21834025,12.5 C8.27457594,12.5 8.32856221,12.4932552 8.3847979,12.4797657 L11.6734614,11.6973741 C11.8039282,11.6658985 11.9208984,11.6006992 12.0153744,11.5062727 L19.5239645,4.00160776 C20.1583031,3.37209722 20.1583031,2.34464609 19.5262139,1.7128873 Z M11.1448458,10.3461747 L9.18784364,10.8115628 L9.64897634,8.85108714 L15.1015894,3.40132449 L16.5974589,4.89641202 L11.1448458,10.3461747 Z M18.5094725,2.98539789 L17.6164497,3.8779539 L16.1205802,2.38286638 L17.013603,1.49031036 C17.0833353,1.42061456 17.1980561,1.42061456 17.2677884,1.49031036 L18.5094725,2.73134542 C18.5792048,2.80104123 18.5792048,2.91570208 18.5094725,2.98539789 L18.5094725,2.98539789 Z" id="形状"></path>
                            </g>
                        </g>
                    </g>
                </g>
            </g>
        </g>
    </g>
</svg>