<?xml version="1.0" encoding="UTF-8"?>
<svg width="21px" height="21px" viewBox="0 0 21 21" version="1.1" xmlns="http://www.w3.org/2000/svg" xmlns:xlink="http://www.w3.org/1999/xlink">
    <!-- Generator: Sketch 64 (93537) - https://sketch.com -->
    <title>icon-3</title>
    <desc>Created with Sketch.</desc>
    <g id="页面-1" stroke="none" stroke-width="1" fill="none" fill-rule="evenodd">
        <g id="画板" transform="translate(-701.000000, -137.000000)" fill="#FFFFFF" fill-rule="nonzero">
            <g id="菜单" transform="translate(455.000000, 124.000000)">
                <g id="编组-9" transform="translate(220.000000, 0.000000)">
                    <g id="icon-3" transform="translate(26.000000, 13.000000)">
                        <path d="M18.7138954,8.49650411 L17.5856345,8.49650411 C16.9696238,5.44884623 14.5876403,3.06686272 11.5399824,2.45085194 L11.5399824,1.32259107 C11.5399824,0.602219657 10.956006,0.0182432432 10.2356345,0.0182432432 L9.80085194,0.0182432432 C9.08048053,0.0182432432 8.49650411,0.602219657 8.49650411,1.32259107 L8.49650411,2.45085194 C5.44884623,3.06686272 3.06686272,5.44884623 2.45085194,8.49650411 L1.32259107,8.49650411 C0.602219657,8.49650411 0.0182432432,9.08048053 0.0182432432,9.80085194 L0.0182432432,10.2356345 C0.0182432432,10.956006 0.602219657,11.5399824 1.32259107,11.5399824 L2.45085194,11.5399824 C3.06686272,14.5876403 5.44884623,16.9696238 8.49650411,17.5856345 L8.49650411,18.7138954 C8.49650411,19.4342668 9.08048053,20.0182432 9.80085194,20.0182432 L10.2356345,20.0182432 C10.956006,20.0182432 11.5399824,19.4342668 11.5399824,18.7138954 L11.5399824,17.5856345 C14.5876403,16.9696238 16.9696238,14.5876403 17.5856345,11.5399824 L18.7138954,11.5399824 C19.4342668,11.5399824 20.0182432,10.956006 20.0182432,10.2356345 L20.0182432,9.80085194 C20.0182432,9.08048053 19.4342668,8.49650411 18.7138954,8.49650411 Z M14.2465041,14.2465041 C13.4979433,14.9952188 12.5639141,15.5316292 11.5399824,15.8008519 L11.5399824,14.8008519 C11.5399824,14.0804805 10.956006,13.4965041 10.2356345,13.4965041 L9.80085194,13.4965041 C9.08048053,13.4965041 8.49650411,14.0804805 8.49650411,14.8008519 L8.49650411,15.8008519 C6.41194011,15.2525489 4.78393756,13.6245464 4.23563455,11.5399824 L5.23563455,11.5399824 C5.95600596,11.5399824 6.53998237,10.956006 6.53998237,10.2356345 L6.53998237,9.80085194 C6.53998237,9.08048053 5.95600596,8.49650411 5.23563455,8.49650411 L4.23563455,8.49650411 C4.78393756,6.41194011 6.41194011,4.78393756 8.49650411,4.23563455 L8.49650411,5.23563455 C8.49650411,5.95600596 9.08048053,6.53998237 9.80085194,6.53998237 L10.2356345,6.53998237 C10.956006,6.53998237 11.5399824,5.95600596 11.5399824,5.23563455 L11.5399824,4.23563455 C13.6245464,4.78393756 15.2525489,6.41194011 15.8008519,8.49650411 L14.8008519,8.49650411 C14.0804805,8.49650411 13.4965041,9.08048053 13.4965041,9.80085194 L13.4965041,10.2356345 C13.4965041,10.956006 14.0804805,11.5399824 14.8008519,11.5399824 L15.8008519,11.5399824 C15.5310471,12.5636752 14.9947192,13.4975609 14.2465041,14.2465041 Z" id="形状"></path>
                    </g>
                </g>
            </g>
        </g>
    </g>
</svg>