<?xml version="1.0" encoding="UTF-8"?>
<svg width="21px" height="22px" viewBox="0 0 21 22" version="1.1" xmlns="http://www.w3.org/2000/svg" xmlns:xlink="http://www.w3.org/1999/xlink">
    <!-- Generator: Sketch 64 (93537) - https://sketch.com -->
    <title>编组10</title>
    <desc>Created with Sketch.</desc>
    <g id="页面-1" stroke="none" stroke-width="1" fill="none" fill-rule="evenodd">
        <g id="画板" transform="translate(-701.000000, -263.000000)" fill-rule="nonzero">
            <g id="菜单备份" transform="translate(455.000000, 251.000000)">
                <g id="编组-9" transform="translate(220.000000, 0.000000)">
                    <g id="编组10" transform="translate(26.000000, 12.000000)">
                        <path d="M18.7138954,9.49650411 L17.5856345,9.49650411 C16.9696238,6.44884623 14.5876403,4.06686272 11.5399824,3.45085194 L11.5399824,2.32259107 C11.5399824,1.60221966 10.956006,1.01824324 10.2356345,1.01824324 L9.80085194,1.01824324 C9.08048053,1.01824324 8.49650411,1.60221966 8.49650411,2.32259107 L8.49650411,3.45085194 C5.44884623,4.06686272 3.06686272,6.44884623 2.45085194,9.49650411 L1.32259107,9.49650411 C0.602219657,9.49650411 0.0182432432,10.0804805 0.0182432432,10.8008519 L0.0182432432,11.2356345 C0.0182432432,11.956006 0.602219657,12.5399824 1.32259107,12.5399824 L2.45085194,12.5399824 C3.06686272,15.5876403 5.44884623,17.9696238 8.49650411,18.5856345 L8.49650411,19.7138954 C8.49650411,20.4342668 9.08048053,21.0182432 9.80085194,21.0182432 L10.2356345,21.0182432 C10.956006,21.0182432 11.5399824,20.4342668 11.5399824,19.7138954 L11.5399824,18.5856345 C14.5876403,17.9696238 16.9696238,15.5876403 17.5856345,12.5399824 L18.7138954,12.5399824 C19.4342668,12.5399824 20.0182432,11.956006 20.0182432,11.2356345 L20.0182432,10.8008519 C20.0182432,10.0804805 19.4342668,9.49650411 18.7138954,9.49650411 Z M14.2465041,15.2465041 C13.4979433,15.9952188 12.5639141,16.5316292 11.5399824,16.8008519 L11.5399824,15.8008519 C11.5399824,15.0804805 10.956006,14.4965041 10.2356345,14.4965041 L9.80085194,14.4965041 C9.08048053,14.4965041 8.49650411,15.0804805 8.49650411,15.8008519 L8.49650411,16.8008519 C6.41194011,16.2525489 4.78393756,14.6245464 4.23563455,12.5399824 L5.23563455,12.5399824 C5.95600596,12.5399824 6.53998237,11.956006 6.53998237,11.2356345 L6.53998237,10.8008519 C6.53998237,10.0804805 5.95600596,9.49650411 5.23563455,9.49650411 L4.23563455,9.49650411 C4.78393756,7.41194011 6.41194011,5.78393756 8.49650411,5.23563455 L8.49650411,6.23563455 C8.49650411,6.95600596 9.08048053,7.53998237 9.80085194,7.53998237 L10.2356345,7.53998237 C10.956006,7.53998237 11.5399824,6.95600596 11.5399824,6.23563455 L11.5399824,5.23563455 C13.6245464,5.78393756 15.2525489,7.41194011 15.8008519,9.49650411 L14.8008519,9.49650411 C14.0804805,9.49650411 13.4965041,10.0804805 13.4965041,10.8008519 L13.4965041,11.2356345 C13.4965041,11.956006 14.0804805,12.5399824 14.8008519,12.5399824 L15.8008519,12.5399824 C15.5310471,13.5636752 14.9947192,14.4975609 14.2465041,15.2465041 Z" id="形状" fill="#36A065"></path>
                        <path d="M7.15942029,3 C6.51909015,3 6,3.57563389 6,4.28571429 L6,4.71428571 C6,5.42436611 6.51909015,6 7.15942029,6 L12.4888889,5.9605888 C13.4962963,5.9605888 14,5.54515444 14,4.71428571 C14,3.46798263 14,5.56798263 14,4.28571429 C14,3.43086873 13.4962963,3.00344595 12.4888889,3.00344595 L7.15942029,3 Z" id="形状备份" fill="#FFCE45" transform="translate(10.000000, 4.500000) rotate(90.000000) translate(-10.000000, -4.500000) "></path>
                        <path d="M7.15942029,16 C6.51909015,16 6,16.5756339 6,17.2857143 L6,17.7142857 C6,18.4243661 6.51909015,19 7.15942029,19 L12.4888889,18.9605888 C13.4962963,18.9605888 14,18.5451544 14,17.7142857 C14,16.4679826 14,18.5679826 14,17.2857143 C14,16.4308687 13.4962963,16.0034459 12.4888889,16.0034459 L7.15942029,16 Z" id="形状备份" fill="#FFCE45" transform="translate(10.000000, 17.500000) rotate(90.000000) translate(-10.000000, -17.500000) "></path>
                    </g>
                </g>
            </g>
        </g>
    </g>
</svg>