<?xml version="1.0" encoding="UTF-8"?>
<svg width="15px" height="17px" viewBox="0 0 15 17" version="1.1" xmlns="http://www.w3.org/2000/svg" xmlns:xlink="http://www.w3.org/1999/xlink">
    <!-- Generator: Sketch 64 (93537) - https://sketch.com -->
    <title>icon-2</title>
    <desc>Created with Sketch.</desc>
    <g id="页面-1" stroke="none" stroke-width="1" fill="none" fill-rule="evenodd">
        <g id="画板" transform="translate(-593.000000, -138.000000)" fill-rule="nonzero">
            <g id="菜单" transform="translate(455.000000, 124.000000)">
                <g id="编组-3" transform="translate(110.000000, 0.000000)">
                    <g id="icon-4" transform="translate(7.000000, 12.000000)">
                        <g id="icon-2" transform="translate(17.000000, 0.000000)">
                            <rect id="矩形" fill="#000000" opacity="0" x="0" y="0" width="22" height="22"></rect>
                            <path d="M17.6970624,18.8571429 L5.35055662,18.8571429 C5.04288416,18.8571429 4.74781316,18.7377068 4.53025588,18.5251091 C4.3126986,18.3125115 4.19047619,18.0241672 4.19047619,17.7235088 L4.19047619,3.22887218 C4.19047619,2.60278336 4.70986189,2.0952381 5.35055662,2.0952381 L17.6970624,2.0952381 C18.0047349,2.0952381 18.2998059,2.2146742 18.5173632,2.42727183 C18.7349204,2.63986946 18.8571429,2.92821373 18.8571429,3.22887218 L18.8571429,17.7235088 C18.8571429,18.0241672 18.7349204,18.3125115 18.5173632,18.5251091 C18.2998059,18.7377068 18.0047349,18.8571429 17.6970624,18.8571429 L17.6970624,18.8571429 Z M6.59279061,17.0759699 L16.4539257,17.0759699 C16.7745223,17.0759699 17.0344173,16.8219998 17.0344173,16.5087118 L17.0344173,4.44366917 C17.0344173,4.13038115 16.7745223,3.87641103 16.4539257,3.87641103 L6.59369339,3.87641103 C6.27309673,3.87641103 6.01320178,4.13038115 6.01320178,4.44366917 L6.01320178,16.5087118 C6.01320178,16.8219998 6.27309673,17.0759699 6.59369339,17.0759699 L6.59279061,17.0759699 Z M7.54613297,5.98223559 L11.3576968,5.98223559 C11.9102021,5.98223559 12.1864547,6.25219048 12.1864547,6.79210025 L12.1864547,6.79210025 C12.1864547,7.33201003 11.9102021,7.60196491 11.3576968,7.60196491 L7.54613297,7.60196491 C6.99362774,7.60196491 6.71737512,7.33201003 6.71737512,6.79210025 L6.71737512,6.79210025 C6.71737512,6.25219048 6.99362774,5.98223559 7.54613297,5.98223559 L7.54613297,5.98223559 Z M7.54613297,9.66632581 L15.5005833,9.66632581 C16.0530885,9.66632581 16.3293411,9.9362807 16.3293411,10.4761905 L16.3293411,10.4761905 C16.3293411,11.0161003 16.0530885,11.2860551 15.5005833,11.2860551 L7.54613297,11.2860551 C6.99362774,11.2860551 6.71737512,11.0161003 6.71737512,10.4761905 L6.71737512,10.4761905 C6.71737512,9.9362807 6.99362774,9.66632581 7.54613297,9.66632581 Z M7.54613297,13.350416 L15.5005833,13.350416 C16.0530885,13.350416 16.3293411,13.6203709 16.3293411,14.1602807 L16.3293411,14.1602807 C16.3293411,14.7001905 16.0530885,14.9701454 15.5005833,14.9701454 L7.54613297,14.9701454 C6.99362774,14.9701454 6.71737512,14.7001905 6.71737512,14.1602807 L6.71737512,14.1602807 C6.71737512,13.6203709 6.99362774,13.350416 7.54613297,13.350416 Z" id="形状" fill="#FFFFFF"></path>
                        </g>
                    </g>
                </g>
            </g>
        </g>
    </g>
</svg>