<?xml version="1.0" encoding="UTF-8"?>
<svg width="20px" height="24px" viewBox="0 0 20 24" version="1.1" xmlns="http://www.w3.org/2000/svg" xmlns:xlink="http://www.w3.org/1999/xlink">
    <!-- Generator: Sketch 64 (93537) - https://sketch.com -->
    <title>编组</title>
    <desc>Created with Sketch.</desc>
    <g id="页面-1" stroke="none" stroke-width="1" fill="none" fill-rule="evenodd">
        <g id="3-任务详情" transform="translate(-462.000000, -420.000000)" fill="#36A065" fill-rule="nonzero">
            <g id="编组-16备份" transform="translate(120.000000, 273.000000)">
                <g id="编组-18" transform="translate(309.000000, 116.000000)">
                    <g id="编组-15" transform="translate(20.000000, 20.000000)">
                        <g id="编组-14">
                            <g id="编组" transform="translate(13.000000, 11.000000)">
                                <path d="M1.68254278,24 C0.757902154,24 0,23.25 0,22.335 L0,1.695 C0,0.765 0.757902154,0.015 1.68254278,0.015 L12.3992792,0.015 C12.4599114,0 12.5053855,0 12.5508597,0 C12.7630723,0 12.9601268,0.09 13.1117073,0.225 L19.7812462,5.025 C19.9479847,5.19 20.0237749,5.445 19.9934588,5.67 L19.9934588,22.32 C19.9934588,23.235 19.2355567,23.985 18.310916,23.985 L1.68254278,23.985 L1.68254278,24 Z M1.24092117,1 C1.10540301,1 1,1.10440341 1,1.23863636 L1,21.7613636 C1,21.8955966 1.10540301,22 1.24092117,22 L17.7590788,22 C17.894597,22 18,21.8955966 18,21.7613636 L18,5.44460227 L11.9167405,1.07457386 L11.9167405,1.01491477 L1.24092117,1.01491477 L1.24092117,1 Z M6.65555556,24 L6.65555556,17.9642857 L3,17.9642857 L10,11 L17,17.9642857 L13.3444444,17.9642857 L13.3444444,24 L6.65555556,24 L6.65555556,24 Z M8.5785877,22 L12.405467,22 L12.405467,16.2459016 L14,16.2459016 L10.4920273,13 L7,16.2311475 L8.59453303,16.2311475 L8.59453303,22 L8.5785877,22 Z M3,10 L3,9 L16,9 L16,10 L3,10 Z M3,6 L3,5 L8,5 L8,6 L3,6 Z" id="形状"></path>
                            </g>
                        </g>
                    </g>
                </g>
            </g>
        </g>
    </g>
</svg>