<?xml version="1.0" encoding="UTF-8"?>
<svg width="27px" height="21px" viewBox="0 0 27 21" version="1.1" xmlns="http://www.w3.org/2000/svg" xmlns:xlink="http://www.w3.org/1999/xlink">
    <!-- Generator: Sketch 64 (93537) - https://sketch.com -->
    <title>编组</title>
    <desc>Created with Sketch.</desc>
    <g id="页面-1" stroke="none" stroke-width="1" fill="none" fill-rule="evenodd">
        <g id="首页1" transform="translate(-644.000000, -347.000000)" fill="#E58071" fill-rule="nonzero">
            <g id="编组-7备份-2" transform="translate(615.000000, 313.000000)">
                <g id="编组-12" transform="translate(15.000000, 17.000000)">
                    <g id="编组" transform="translate(14.000000, 17.000000)">
                        <path d="M23.5986,1.10399999 C22.9855492,0.403004729 22.0998493,0.00061264746 21.1686,0 L16.9764,0 C15.336,0 14.226,0.954 13.5,2.00759999 C12.7734,0.95459999 11.6634,0 10.0236,0 L5.8284,0 C4.89720001,0 4.01099999,0.40199999 3.3966,1.10399999 L0,4.9914 C0.173399991,7.3638 2.1258,9.2394 4.5342,9.2394 C6.9426,9.2394 8.8938,7.3638 9.06779998,4.9914 L6.3036,1.926 L10.0224,1.926 C10.7886,1.926 11.3568,2.37299999 11.7996,2.9358 L11.7996,15.663 L8.48639998,15.663 C8.04486927,15.6637948 7.6217472,15.839996 7.31015685,16.1528241 C6.9985665,16.4656523 6.82404427,16.8894696 6.82499998,17.331 L6.82499998,17.937 L6.36899999,17.937 C5.45001113,17.9389862 4.70654141,18.6854105 4.70819998,19.6044 L4.70819998,21 L21.7452,21 L21.7452,19.605 C21.7452,18.684 21.0012,17.937 20.0832,17.937 L19.6764,17.937 L19.6764,17.331 C19.6764,16.41 18.9324,15.663 18.0144,15.663 L14.6544,15.663 L14.6544,3.79740001 C15.0972,2.9106 15.8484,1.92840002 16.9764,1.92839999 L20.6946,1.92839999 L17.9304,4.99199999 C18.1044,7.36439999 20.0568,9.23999999 22.4646,9.23999999 C24.8754,9.23999999 26.8242,7.36439999 27,4.99199999 L23.5986,1.10399999 Z M2.70239999,4.99019999 L4.56599998,2.86259999 L6.43199999,4.99080001 L2.70239999,4.99080001 L2.70239999,4.99019999 Z M20.5662,4.99019999 L22.4328,2.862 L24.2958,4.99019999 L20.5662,4.99019999 Z" id="形状"></path>
                    </g>
                </g>
            </g>
        </g>
    </g>
</svg>