<?xml version="1.0" standalone="no"?><!DOCTYPE svg PUBLIC "-//W3C//DTD SVG 1.1//EN" "http://www.w3.org/Graphics/SVG/1.1/DTD/svg11.dtd"><svg t="1588823074302" class="icon" viewBox="0 0 1024 1024" version="1.1" xmlns="http://www.w3.org/2000/svg" p-id="3061" xmlns:xlink="http://www.w3.org/1999/xlink" width="48" height="48"><defs><style type="text/css"></style></defs><path d="M507.032079 506.930693m-506.930693 0a506.930693 506.930693 0 1 0 1013.861386 0 506.930693 506.930693 0 1 0-1013.861386 0Z" fill="#FEC43C" p-id="3062"></path><path d="M1003.824158 404.530693C956.172673 173.370297 752.386535 0 507.032079 0 227.206337 0 0.101386 227.10495 0.101386 506.930693c0 122.677228 43.59604 234.20198 115.580198 321.394059C201.859802 875.976238 300.204356 902.336634 405.645941 902.336634c298.075248 0 545.457426-214.938614 598.178217-497.805941z" fill="#FFD73A" p-id="3063"></path><path d="M91.348911 517.069307a101.386139 70.970297 0 1 0 202.772277 0 101.386139 70.970297 0 1 0-202.772277 0Z" fill="#FFC13C" p-id="3064"></path><path d="M719.94297 515.041584a101.386139 70.970297 0 1 0 202.772278 0 101.386139 70.970297 0 1 0-202.772278 0Z" fill="#FFC13C" p-id="3065"></path><path d="M294.121188 425.821782m-116.594059 0a116.594059 116.594059 0 1 0 233.188119 0 116.594059 116.594059 0 1 0-233.188119 0Z" fill="#FFFFFF" p-id="3066"></path><path d="M719.94297 425.821782m-116.594059 0a116.594059 116.594059 0 1 0 233.188119 0 116.594059 116.594059 0 1 0-233.188119 0Z" fill="#FFFFFF" p-id="3067"></path><path d="M578.002376 648.871287H436.061782c-17.235644 0-30.415842-13.180198-30.415841-30.415841s13.180198-30.415842 30.415841-30.415842h141.940594c17.235644 0 30.415842 13.180198 30.415842 30.415842s-13.180198 30.415842-30.415842 30.415841z" fill="#873A18" p-id="3068"></path><path d="M294.121188 425.821782m-40.554455 0a40.554455 40.554455 0 1 0 81.108911 0 40.554455 40.554455 0 1 0-81.108911 0Z" fill="#873A18" p-id="3069"></path><path d="M719.94297 425.821782m-40.554455 0a40.554455 40.554455 0 1 0 81.108911 0 40.554455 40.554455 0 1 0-81.108911 0Z" fill="#873A18" p-id="3070"></path></svg>