<?xml version="1.0" encoding="UTF-8"?>
<svg width="20px" height="18px" viewBox="0 0 20 18" version="1.1" xmlns="http://www.w3.org/2000/svg" xmlns:xlink="http://www.w3.org/1999/xlink">
    <!-- Generator: Sketch 64 (93537) - https://sketch.com -->
    <title>编组</title>
    <desc>Created with Sketch.</desc>
    <g id="页面-1" stroke="none" stroke-width="1" fill="none" fill-rule="evenodd">
        <g id="画板" transform="translate(-1030.000000, -264.000000)" fill-rule="nonzero">
            <g id="菜单备份" transform="translate(455.000000, 251.000000)">
                <g id="编组-6" transform="translate(550.000000, 0.000000)">
                    <g id="编组" transform="translate(25.000000, 13.000000)">
                        <path d="M0,0 L0,14.8945239 L7.40515933,14.8945239 L7.40515933,16.1758835 L12.6150733,16.1758835 L12.6150733,14.8945239 L20,14.8945239 L20,0 L0,0 Z M18.2802226,13.2031292 L1.66919575,13.2031292 L1.66919575,1.72214729 L18.2802226,1.72214729 L18.2802226,13.2031292 Z M3.79362671,16.1861343 L16.2164896,16.1861343 L16.2164896,17.2727273 L3.79362671,17.2727273 L3.79362671,16.1861343 Z" id="形状" fill="#36A065"></path>
                        <path d="M10.7840162,3.4340437 C10.9964593,3.4340437 11.1583207,3.60830861 11.1583207,3.81332614 L11.1583207,3.81332614 L11.1583207,6.02751551 C11.4011128,6.09927165 11.6337886,6.20178042 11.8462317,6.32479094 L11.8462317,6.32479094 L13.7582195,4.99217696 C13.9301973,4.87941732 14.162873,4.92042083 14.2741528,5.09468573 L14.2741528,5.09468573 L15.1846232,6.44780146 C15.3060192,6.62206636 15.2655539,6.85783653 15.0935761,6.97059617 L15.0935761,6.97059617 L13.4850784,8.09819261 C13.5558928,8.26220664 13.6267071,8.42622066 13.6772888,8.60048557 L13.6772888,8.60048557 L15.8927668,8.60048557 C16.0950936,8.60048557 16.256955,8.7644996 16.2670713,8.97976801 L16.2670713,8.97976801 L16.2670713,10.6199083 C16.2670713,10.8249258 16.0950936,10.9991907 15.8927668,10.9991907 L15.8927668,10.9991907 L4.11734952,10.9991907 C3.90490642,10.9991907 3.74304502,10.8249258 3.74304502,10.6199083 L3.74304502,10.6199083 L3.74304502,8.97976801 C3.74304502,8.77475047 3.91502276,8.60048557 4.11734952,8.60048557 L4.11734952,8.60048557 L6.28224583,8.60048557 C6.34294385,8.41596979 6.41375822,8.23145401 6.49468892,8.0571891 L6.49468892,8.0571891 L4.94688923,6.97059617 C4.78502782,6.85783653 4.74456247,6.62206636 4.85584219,6.44780146 L4.85584219,6.44780146 L5.76631259,5.09468573 C5.88770865,4.92042083 6.11026808,4.87941732 6.28224583,4.99217696 L6.28224583,4.99217696 L8.16388467,6.30428918 C8.36621143,6.19152954 8.57865453,6.09927165 8.80121396,6.02751551 L8.80121396,6.02751551 L8.80121396,3.81332614 C8.80121396,3.60830861 8.9731917,3.4340437 9.17551846,3.4340437 L9.17551846,3.4340437 Z M9.98482549,8.35446453 C9.27668184,8.35446453 8.71016692,8.92851362 8.71016692,9.64607499 C8.71016692,10.3533855 9.28679818,10.9376855 9.98482549,10.9376855 C10.6929691,10.9376855 11.2594841,10.3636364 11.2594841,9.64607499 C11.2594841,9.60507149 11.2493677,9.56406798 11.2493677,9.52306447 L11.2493677,9.52306447 L11.2898331,9.52306447 C11.2696004,9.42055571 11.2291351,9.31804694 11.1886697,9.22578905 C11.016692,8.72349609 10.5412241,8.35446453 9.98482549,8.35446453 Z" id="形状结合" fill="#FFCE45"></path>
                    </g>
                </g>
            </g>
        </g>
    </g>
</svg>