<?xml version="1.0" encoding="UTF-8"?>
<svg width="20px" height="18px" viewBox="0 0 20 18" version="1.1" xmlns="http://www.w3.org/2000/svg" xmlns:xlink="http://www.w3.org/1999/xlink">
    <!-- Generator: Sketch 64 (93537) - https://sketch.com -->
    <title>编组</title>
    <desc>Created with Sketch.</desc>
    <g id="页面-1" stroke="none" stroke-width="1" fill="none" fill-rule="evenodd">
        <g id="画板" transform="translate(-1030.000000, -137.000000)" fill="#FFFFFF" fill-rule="nonzero">
            <g id="菜单" transform="translate(455.000000, 124.000000)">
                <g id="编组-6" transform="translate(550.000000, 0.000000)">
                    <g id="编组" transform="translate(25.000000, 13.000000)">
                        <path d="M0,0 L0,14.8945239 L7.40515933,14.8945239 L7.40515933,16.1758835 L12.6150733,16.1758835 L12.6150733,14.8945239 L20,14.8945239 L20,0 L0,0 Z M18.2802226,13.2031292 L1.66919575,13.2031292 L1.66919575,1.72214729 L18.2802226,1.72214729 L18.2802226,13.2031292 Z M3.79362671,16.1861343 L16.2164896,16.1861343 L16.2164896,17.2727273 L3.79362671,17.2727273 L3.79362671,16.1861343 Z M15.8927668,8.60048557 L13.6772888,8.60048557 C13.6267071,8.42622066 13.5558928,8.26220664 13.4850784,8.09819261 L15.0935761,6.97059617 C15.2655539,6.85783653 15.3060192,6.62206636 15.1846232,6.44780146 L14.2741528,5.09468573 C14.162873,4.92042083 13.9301973,4.87941732 13.7582195,4.99217696 L11.8462317,6.32479094 C11.6337886,6.20178042 11.4011128,6.09927165 11.1583207,6.02751551 L11.1583207,3.81332614 C11.1583207,3.60830861 10.9964593,3.4340437 10.7840162,3.4340437 L9.17551846,3.4340437 C8.9731917,3.4340437 8.80121396,3.60830861 8.80121396,3.81332614 L8.80121396,6.02751551 C8.57865453,6.09927165 8.36621143,6.19152954 8.16388467,6.30428918 L6.28224583,4.99217696 C6.11026808,4.87941732 5.88770865,4.92042083 5.76631259,5.09468573 L4.85584219,6.44780146 C4.74456247,6.62206636 4.78502782,6.85783653 4.94688923,6.97059617 L6.49468892,8.0571891 C6.41375822,8.23145401 6.34294385,8.41596979 6.28224583,8.60048557 L4.11734952,8.60048557 C3.91502276,8.60048557 3.74304502,8.77475047 3.74304502,8.97976801 L3.74304502,10.6199083 C3.74304502,10.8249258 3.90490642,10.9991907 4.11734952,10.9991907 L15.8927668,10.9991907 C16.0950936,10.9991907 16.2670713,10.8249258 16.2670713,10.6199083 L16.2670713,8.97976801 C16.256955,8.7644996 16.0950936,8.60048557 15.8927668,8.60048557 L15.8927668,8.60048557 Z M11.2594841,9.64607499 C11.2594841,10.3636364 10.6929691,10.9376855 9.98482549,10.9376855 C9.28679818,10.9376855 8.71016692,10.3533855 8.71016692,9.64607499 C8.71016692,8.92851362 9.27668184,8.35446453 9.98482549,8.35446453 C10.5412241,8.35446453 11.016692,8.72349609 11.1886697,9.22578905 C11.2291351,9.31804694 11.2696004,9.42055571 11.2898331,9.52306447 L11.2493677,9.52306447 C11.2493677,9.56406798 11.2594841,9.60507149 11.2594841,9.64607499 L11.2594841,9.64607499 Z" id="形状"></path>
                    </g>
                </g>
            </g>
        </g>
    </g>
</svg>