<?xml version="1.0" encoding="UTF-8"?>
<svg width="26px" height="26px" viewBox="0 0 26 26" version="1.1" xmlns="http://www.w3.org/2000/svg" xmlns:xlink="http://www.w3.org/1999/xlink">
    <!-- Generator: Sketch 64 (93537) - https://sketch.com -->
    <title>编组</title>
    <desc>Created with Sketch.</desc>
    <g id="页面-1" stroke="none" stroke-width="1" fill="none" fill-rule="evenodd">
        <g id="首页1" transform="translate(-169.000000, -344.000000)" fill="#66AFA5" fill-rule="nonzero">
            <g id="编组-7" transform="translate(140.000000, 313.000000)">
                <g id="编组-13" transform="translate(15.000000, 17.000000)">
                    <g id="编组" transform="translate(14.000000, 14.000000)">
                        <path d="M20.7190929,7.90770349 C20.6613795,3.54382267 17.1408651,0 12.8267922,0 C8.48386253,0 4.94891981,3.58775436 4.93449147,7.99556686 C2.06325228,8.62525436 0,11.2318677 0,14.1899346 C0,17.6898256 2.81352584,20.5307413 6.2474702,20.5307413 C8.25300913,20.5307413 10.1575497,19.5496003 11.3118167,17.8801962 C11.8456652,18.4513081 12.1630886,18.9931323 12.1630886,19.3738735 C12.1630886,20.4428779 12.1630886,21.6583212 11.9610919,22.6541061 C11.8168085,23.2984375 11.10982,25.0264172 11.0953916,25.041061 L11.0376783,25.1875 L15.4238929,25.1875 L15.4094646,25.0557049 C15.1353262,23.225218 14.6447627,19.7106831 14.6447627,19.3738735 C14.659191,19.3592297 14.7746177,19.3299419 14.8756161,19.315298 C15.0631845,19.2713663 15.3517512,19.2274346 15.7413164,19.0663517 C16.8522984,20.003561 18.2807038,20.5307413 19.7523942,20.5307413 C23.2007669,20.5307413 25.9999325,17.6751817 25.9999325,14.1899346 C26.0142928,11.0854288 23.7346154,8.39095203 20.7190929,7.90770349 L20.7190929,7.90770349 Z M19.7668226,18.7881177 C18.6846972,18.7881177 17.6314286,18.3927326 16.83787,17.6751817 C16.7513,17.5873183 16.6503016,17.5433866 16.5348749,17.5140988 C16.4338766,17.4555233 16.0731681,17.2797965 15.8711714,17.3823038 C15.4960346,17.5726744 14.9766145,17.8216206 14.9044728,17.8069767 C14.8179028,17.6166061 15.1064695,16.796548 15.4383213,16.1522166 C15.5248913,15.9911337 15.8278864,15.5078852 16.1597382,14.9953488 C16.9244401,13.7945494 17.1985785,13.3845203 17.1985785,13.2380814 C17.1985785,13.0477108 17.0687234,12.8426962 16.9100117,12.740189 C16.8090133,12.6816134 16.708015,12.6523256 16.621445,12.7255451 C16.4338766,12.8280523 16.1308815,13.1209302 15.7557447,13.4870276 C15.3373229,13.8824128 14.7601894,14.4535247 14.529336,14.4681686 C14.442766,14.3217297 14.4716227,13.4577398 14.615906,12.8573401 C14.6736194,12.6083939 14.7601894,12.2862282 14.8611878,11.9787064 C15.1641829,10.8657703 15.3517512,10.1482195 15.2507529,9.94320494 C15.1497545,9.70890262 14.9766145,9.65032703 14.8756161,9.63568314 C14.6303344,9.59175145 14.3850526,9.7674782 14.2119126,9.91391715 C13.8800608,10.2507267 13.1009306,11.8176235 12.8845055,13.2673692 C12.8267922,13.6481105 12.7835071,14.1020712 12.7402221,14.5413881 C12.6825088,15.0832122 12.6103671,15.8446948 12.5382254,16.0057776 C12.4516554,15.9618459 12.2496587,15.815407 12.0765186,15.6982558 C11.6580968,15.390734 11.10982,14.9807049 10.4461165,14.7171148 C9.69584289,14.4242369 7.38730887,14.0434956 6.95445874,14.0434956 C6.66589199,14.0434956 6.39175357,14.2485102 6.34846856,14.5267442 C6.33404022,14.6585392 6.34846856,14.966061 6.91117373,15.1417878 C7.57487726,15.3468023 9.06099604,16.2107922 9.73912791,16.6354651 L10.0276947,16.8258358 C9.17642274,18.0852108 7.79130233,18.8174055 6.29075521,18.8174055 C3.7946528,18.8174055 1.76025719,16.7672602 1.76025719,14.2192224 C1.76025719,11.8469113 3.57822773,9.82605378 5.91561843,9.65032703 C6.14647183,9.63568314 6.37732524,9.51853198 6.52160861,9.34280523 C6.66589199,9.15243459 6.75246202,8.91813227 6.72360534,8.69847384 C6.709177,8.4934593 6.68032033,8.27380087 6.68032033,8.06878634 C6.68032033,4.53960756 9.45056115,1.74262355 12.8412205,1.74262355 C16.2463082,1.74262355 19.0021207,4.55425145 19.0021207,7.99556686 C19.0021207,8.2005814 19.0021207,8.39095203 18.9876923,8.61061047 C18.973264,8.85955669 19.0454057,9.09385901 19.1896891,9.28422965 C19.3484008,9.47460029 19.5792542,9.57710756 19.8245359,9.57710756 C22.2917817,9.59175145 24.2973206,11.6565407 24.2973206,14.1752907 C24.2684639,16.7233285 22.2484966,18.7881177 19.7668226,18.7881177 L19.7668226,18.7881177 Z" id="形状"></path>
                    </g>
                </g>
            </g>
        </g>
    </g>
</svg>